<?xml version="1.0" encoding="UTF-8" standalone="no"?>
<!DOCTYPE svg PUBLIC "-//W3C//DTD SVG 1.1//EN" "http://www.w3.org/Graphics/SVG/1.1/DTD/svg11.dtd">
<svg xmlns="http://www.w3.org/2000/svg">
<metadata>
This is a custom SVG webfont generated by Font Squirrel.
Copyright   : Copyright  2011 Nokia All rights reserved  Reproduction transfer distribution or storage of part or all of the contents in this document in any form without the prior written permission of Nokia is prohibited
Designer    : Dalton Maag Ltd
Foundry     : Dalton Maag Ltd
Foundry URL : httpwwwdaltonmaagcom
</metadata>
<defs>
<font id="webfont9WlqIh5u" horiz-adv-x="1212">
<font-face units-per-em="2048" ascent="1638" descent="-410"/>
<missing-glyph horiz-adv-x="499"/>
<glyph unicode=" " horiz-adv-x="499"/>
<glyph unicode="	" horiz-adv-x="499"/>
<glyph unicode=" " horiz-adv-x="499"/>
<glyph unicode="!" horiz-adv-x="618" d="M403 395h-188v1045h188v-1045zM440 111q0 -59 -35.5 -98.5t-95.5 -39.5q-59 0 -95 39t-36 99q0 59 36 98t95 39t95 -39t36 -98z"/>
<glyph unicode="&quot;" horiz-adv-x="921" d="M180 1440h195l-19 -537h-155zM547 1440h195l-19 -537h-155z"/>
<glyph unicode="#" d="M145 1057h228l71 356h162l-71 -356h280l72 356h162l-72 -356h197l-27 -148h-199l-76 -379h222l-27 -147h-221l-76 -383h-162l76 383h-283l-75 -383h-162l76 383h-201l27 147h202l76 379h-225zM430 530h281l75 379h-280z"/>
<glyph unicode="$" d="M659 -223h-137v207q-92 2 -165.5 20.5t-127 41t-86 41.5t-41.5 26l76 133l58 -33q33 -18 75.5 -34.5t95 -30t115.5 -15.5v522l-69 23q-68 25 -124.5 55.5t-96 73.5t-61 99.5t-21.5 133.5q0 156 96 259.5t276 125.5v193h137v-188q113 -10 199 -42t139 -67l-67 -135 q-35 20 -103.5 50t-167.5 40v-496l56 -18q158 -53 238.5 -140t80.5 -235q0 -160 -94 -267.5t-281 -129.5v-213zM858 375q0 82 -42 142.5t-157 100.5v-479q113 23 156 84.5t43 151.5zM319 1053q0 -43 9.5 -78t32 -62.5t61.5 -51t100 -44.5v457q-98 -16 -150.5 -72.5 t-52.5 -148.5z"/>
<glyph unicode="%" horiz-adv-x="1914" d="M1247 1413h187l-764 -1413h-187zM113 1030q0 199 80.5 304.5t242.5 105.5q160 0 240 -105.5t80 -304.5t-80 -303t-240 -104q-323 -1 -323 407zM270 1030q0 -274 166 -274q80 0 121 69.5t41 204.5q0 274 -162 275q-166 -1 -166 -275zM1159 381q0 199 81 304.5t243 105.5 q160 0 239.5 -105.5t79.5 -304.5t-78.5 -303.5t-240.5 -104.5q-324 0 -324 408zM1317 381q0 -274 166 -275q82 0 122 70t40 205q0 274 -162 274q-166 0 -166 -274z"/>
<glyph unicode="&amp;" horiz-adv-x="1406" d="M424 809q-74 88 -108.5 160.5t-34.5 163.5q0 154 94 247t272 93q72 0 136.5 -19.5t112.5 -58.5t76.5 -98.5t28.5 -137.5q0 -72 -22.5 -128t-64.5 -102t-101 -84t-133 -73l362 -432q45 49 83 108.5t73 131.5l137 -70q-35 -78 -84 -153.5t-106 -137.5l186 -219h-223 l-92 106q-90 -61 -195.5 -97t-228.5 -36q-129 0 -221 31t-151.5 84t-88.5 128t-29 165q0 152 86 255t236 173zM516 698q-106 -57 -162.5 -130.5t-56.5 -170.5q0 -262 303 -262q172 0 315 90zM645 1331q-92 0 -143 -53t-51 -143q0 -72 37.5 -131.5t95.5 -124.5q51 25 97 50 t79 56t52 71t19 93q0 86 -52 134t-134 48z"/>
<glyph unicode="'" horiz-adv-x="552" d="M180 1440h195l-19 -537h-155z"/>
<glyph unicode="(" horiz-adv-x="585" d="M123 670q0 160 21.5 297t52 247.5t65.5 192.5t62 129h180q-33 -61 -65.5 -150.5t-59.5 -200t-43.5 -240.5t-16.5 -275t16.5 -275.5t43.5 -241t59.5 -199.5t65.5 -151h-180q-27 47 -62 129t-65.5 193t-52 248t-21.5 297z"/>
<glyph unicode=")" horiz-adv-x="585" d="M463 670q0 -160 -21.5 -297t-52.5 -248t-65.5 -193t-61.5 -129h-180q33 61 65.5 150.5t59 200t43 240.5t16.5 276q0 145 -16.5 275t-43 240.5t-59 200t-65.5 150.5h180q27 -47 61.5 -129t65.5 -192.5t52.5 -247.5t21.5 -297z"/>
<glyph unicode="*" horiz-adv-x="833" d="M506 1536l-31 -283l122 59l122 58l53 -143l-262 -80l205 -223l-127 -99l-172 238l-172 -238l-125 99l203 223l-261 80l52 143l243 -117l-30 283h180z"/>
<glyph unicode="+" d="M154 788h366v400h172v-400h367v-163h-367v-400h-172v400h-366v163z"/>
<glyph unicode="," horiz-adv-x="552" d="M408 100q0 -68 -32 -144.5t-73 -145t-78 -118.5t-49 -65l-104 72l33 53q22 35 43.5 76t41 83t27.5 73q-33 16 -54.5 46.5t-21.5 78.5q0 66 37 102.5t98 36.5q57 0 94.5 -40t37.5 -108z"/>
<glyph unicode="-" horiz-adv-x="833" d="M123 668h588v-189h-588v189z"/>
<glyph unicode="." horiz-adv-x="552" d="M408 111q0 -59 -36 -98.5t-96 -39.5q-59 0 -95 39t-36 99q0 59 36 98t95 39t95.5 -39t36.5 -98z"/>
<glyph unicode="/" horiz-adv-x="897" d="M31 -96l639 1632h196l-639 -1632h-196z"/>
<glyph unicode="0" d="M100 707q0 356 123 544.5t383 188.5q258 0 382 -188.5t124 -544.5q0 -360 -123 -547t-383 -187t-383 188t-123 546zM293 707q0 -287 75.5 -429.5t237.5 -142.5q160 0 237 143.5t77 428.5q0 287 -77 428t-237 141t-236.5 -141t-76.5 -428z"/>
<glyph unicode="1" d="M584 1194l-332 -193l-72 140l457 272h133v-1413h-186v1194z"/>
<glyph unicode="2" d="M553 694q63 49 113.5 93t84.5 87.5t51 88.5t17 98q0 92 -57 155.5t-182 63.5q-61 0 -110.5 -17.5t-87.5 -42t-65.5 -53t-45.5 -53.5l-117 100q20 31 57 70t92.5 74t127 58.5t161.5 23.5q111 0 190.5 -32t131 -84t75 -119.5t23.5 -137.5q0 -78 -25.5 -143.5t-69.5 -123 t-100.5 -108.5t-117.5 -98q-78 -59 -137.5 -113.5t-101.5 -106.5t-66.5 -104.5t-30.5 -109.5h667v-160h-860v33q0 111 23.5 200t72 166.5t120 149t167.5 145.5z"/>
<glyph unicode="3" d="M344 803h137q78 0 134 19.5t92 53t53.5 79.5t17.5 98q0 96 -57.5 162.5t-186.5 66.5q-59 0 -107 -12.5t-86 -30.5t-66 -39.5t-46 -38.5l-100 107q18 23 54 52.5t88 56t118.5 45t148.5 18.5q113 0 193 -30t132 -80t76.5 -114.5t24.5 -134.5q0 -68 -19.5 -122t-53 -97 t-78.5 -75.5t-97 -53.5q57 -14 107.5 -42.5t87.5 -72t58.5 -99.5t21.5 -124q0 -102 -39 -181t-107.5 -132t-162 -81t-201.5 -28q-129 0 -219 17.5t-142 36.5l41 147q37 -10 110 -24.5t196 -14.5q150 0 241.5 64.5t91.5 195.5q0 106 -74.5 177t-238.5 71h-143v160z"/>
<glyph unicode="4" d="M883 874v-364h211v-156h-211v-354h-172v354h-584v148l530 911h189l-529 -903h394v364h172z"/>
<glyph unicode="5" d="M479 137q156 0 252 80t96 234q0 51 -13 102t-46 93t-88 67.5t-139 25.5q-86 0 -141.5 -22.5t-90.5 -42.5l-100 71l80 668h678v-162h-545l-45 -401q16 10 71.5 24.5t141.5 14.5q92 0 171 -26.5t135 -80t89 -136.5t33 -195q0 -98 -35 -185.5t-101.5 -152t-164.5 -102.5 t-227 -38t-219.5 17.5t-141.5 36.5l41 147q37 -10 109.5 -23.5t199.5 -13.5z"/>
<glyph unicode="6" d="M713 1280q-174 0 -264 -134t-107 -386q41 66 127 115t199 49q86 0 162 -27t132 -82t90 -141t34 -207q0 -119 -33 -211t-92.5 -154.5t-143 -95.5t-188.5 -33q-217 0 -341 158t-124 479q0 410 140.5 620t408.5 210q109 0 185.5 -23.5t138.5 -64.5l-72 -131q-115 59 -252 59 zM627 129q74 0 126 24.5t86 67.5t50.5 100.5t16.5 122.5q0 166 -69 243t-198 77q-135 0 -211.5 -83t-76.5 -212q0 -63 16 -124.5t50 -109t86 -77t124 -29.5z"/>
<glyph unicode="7" d="M274 0l578 1251h-727v162h913v-149l-571 -1264h-193z"/>
<glyph unicode="8" d="M1036 1083q0 -61 -19.5 -113t-52 -95.5t-76.5 -77t-91 -60.5q66 -33 117 -68.5t86.5 -79.5t54 -100.5t18.5 -128.5q0 -182 -125 -284.5t-344 -102.5q-111 0 -198 27t-147 75t-91 113.5t-31 145.5q0 76 22.5 135t61.5 105.5t92.5 82t114.5 66.5q-47 25 -92 55.5t-81 72.5 t-58.5 98.5t-22.5 129.5q0 74 28.5 139.5t83 114.5t134.5 78t184 29q113 0 194 -28t134 -77t78.5 -113.5t25.5 -138.5zM895 358q0 59 -20.5 105.5t-59.5 82.5t-96 64.5t-133 53.5q-57 -27 -107.5 -56.5t-87.5 -66.5t-57.5 -83t-20.5 -108q0 -100 75 -163.5t216 -63.5 q135 0 213 60t78 175zM862 1077q0 94 -64.5 156.5t-193.5 62.5q-123 0 -190.5 -62.5t-67.5 -154.5q0 -59 22.5 -103t61.5 -78t92 -58.5t113 -42.5q106 47 166.5 112.5t60.5 167.5z"/>
<glyph unicode="9" d="M469 131q102 0 174 35t119 101.5t72.5 163.5t36.5 222q-41 -66 -127 -115t-199 -49q-86 0 -162 27t-132 82t-90 141t-34 207q0 119 33 210t92 154.5t143 96.5t189 33q217 0 341 -159t124 -488q0 -207 -40 -362t-114 -256t-180.5 -151.5t-239.5 -50.5q-117 0 -186.5 16.5 t-87.5 24.5l37 148q10 -4 33.5 -9.5t55.5 -9.5t68.5 -8t73.5 -4zM586 1284q-74 0 -127 -24.5t-87 -67.5t-49.5 -100.5t-15.5 -122.5q0 -166 69 -243t198 -77q135 0 211.5 83t76.5 212q0 63 -16 124.5t-50 109t-86 77t-124 29.5z"/>
<glyph unicode=":" horiz-adv-x="552" d="M408 111q0 -59 -36 -98.5t-96 -39.5q-59 0 -95 39t-36 99q0 59 36 98t95 39t95.5 -39t36.5 -98zM408 891q0 -59 -36 -98.5t-96 -39.5q-59 0 -95 39t-36 99q0 59 36 98t95 39t95.5 -39t36.5 -98z"/>
<glyph unicode=";" horiz-adv-x="552" d="M408 887q0 -59 -36 -98.5t-96 -39.5q-59 0 -95 39t-36 99q0 59 36 98t95 39t95.5 -39t36.5 -98zM408 100q0 -68 -32 -144.5t-73 -145t-78 -118.5t-49 -65l-104 72l33 53q22 35 43.5 76t41 83t27.5 73q-33 16 -54.5 46.5t-21.5 78.5q0 66 37 102.5t98 36.5q57 0 94.5 -40 t37.5 -108z"/>
<glyph unicode="&lt;" d="M365 707l671 -304l-63 -155l-797 383v151l797 383l63 -155z"/>
<glyph unicode="=" d="M195 993h823v-164h-823v164zM195 584h823v-164h-823v164z"/>
<glyph unicode="&gt;" d="M176 1010l64 155l796 -383v-151l-796 -383l-64 155l672 304z"/>
<glyph unicode="?" horiz-adv-x="1112" d="M393 395q0 78 17.5 138.5t48 109.5t71.5 91t86 83l53 49q28 27 51 59.5t37.5 70.5t14.5 85q0 96 -60.5 160t-199.5 64q-106 0 -178 -46.5t-131 -113.5l-115 104q23 33 62.5 72t95 72.5t127 56.5t155.5 23q127 0 212 -35t135.5 -90.5t72 -124t21.5 -133.5 q0 -63 -17.5 -114.5t-45 -94.5t-62.5 -79t-70 -67l-74 -67q-35 -33 -60.5 -71t-40.5 -87t-15 -115h-191zM618 111q0 -59 -35.5 -98.5t-95.5 -39.5q-59 0 -95 39t-36 99q0 59 36 98t95 39t95 -39t36 -98z"/>
<glyph unicode="@" horiz-adv-x="2064" d="M1896 -174q-145 -133 -342.5 -217t-459.5 -84q-264 0 -448.5 71.5t-298.5 195.5t-165 292t-51 358q0 223 70.5 422t199.5 348.5t311.5 236.5t405.5 87q201 0 358.5 -56.5t267 -159.5t167 -245.5t57.5 -314.5t-48 -308.5t-125 -230.5t-172 -143t-189 -49q-59 0 -96.5 11 t-59 27.5t-31.5 34t-14 29.5q-45 -35 -112.5 -68.5t-176.5 -33.5q-74 0 -136.5 24.5t-107.5 72.5t-70.5 117.5t-25.5 162.5q0 133 35 243.5t96.5 190.5t146.5 125t185 45q70 0 119 -19.5t79.5 -44t47 -48.5t20.5 -34l33 123h162l-119 -633q-6 -33 -10 -61.5t-4 -46.5 q0 -35 19.5 -49.5t58.5 -14.5q41 0 97 33t107.5 102.5t87 179t35.5 263.5q0 150 -49 265.5t-139 194t-215 119.5t-279 41q-184 0 -333.5 -74.5t-255 -202.5t-164 -299t-58.5 -362q0 -158 41 -296t134 -240.5t244 -162.5t370 -60q133 0 243.5 28.5t197.5 68.5t149.5 85 t101.5 80zM985 174q92 0 149.5 34t84.5 64l45 238q4 20 8 59t4 84q0 96 -48 150.5t-149 54.5q-61 0 -114.5 -31.5t-93.5 -90t-62.5 -142.5t-22.5 -188q0 -111 53.5 -171.5t145.5 -60.5z"/>
<glyph unicode="A" horiz-adv-x="1191" d="M856 369h-537l-118 -369h-181l476 1440h198l477 -1440h-196zM373 535h430l-213 665z"/>
<glyph unicode="B" horiz-adv-x="1243" d="M594 1440q133 0 221 -35t140.5 -88t73 -118.5t20.5 -129.5q0 -78 -25 -135t-60.5 -95t-76.5 -58.5t-74 -26.5q39 -6 92 -24.5t102.5 -58.5t83 -105.5t33.5 -166.5q0 -86 -28.5 -159.5t-91 -127t-159.5 -83t-233 -29.5h-438v1440h420zM569 823q84 0 140.5 20.5t90.5 54.5 t47 76t13 85q0 111 -70.5 164t-201.5 53h-230v-453h211zM639 164q82 0 138.5 20.5t91 54t49 77.5t14.5 94q0 72 -25.5 120t-72 77.5t-111 43t-143.5 13.5h-222v-500h281z"/>
<glyph unicode="C" horiz-adv-x="1271" d="M762 1284q-219 0 -325.5 -150.5t-106.5 -414.5t105.5 -413.5t324.5 -149.5q61 0 115.5 11t98.5 27.5t78.5 37t57.5 36.5l98 -137q-63 -55 -180 -104.5t-276 -49.5q-156 0 -273 51.5t-195.5 146.5t-118.5 233.5t-40 310.5q0 166 40 303t120 234.5t198.5 151.5t278.5 54 q145 0 253.5 -42t194.5 -113l-98 -138q-27 20 -59.5 41t-75.5 37.5t-95 26.5t-120 10z"/>
<glyph unicode="D" horiz-adv-x="1427" d="M653 1440q158 0 280 -53.5t204 -148.5t124 -227t42 -292q0 -162 -42 -295t-124 -227.5t-204 -145.5t-280 -51h-479v1440h479zM653 170q223 0 334 147.5t111 403.5t-112 402.5t-333 146.5h-291v-1100h291z"/>
<glyph unicode="E" horiz-adv-x="1103" d="M174 1440h848v-170h-660v-436h517v-170h-517v-494h680v-170h-868v1440z"/>
<glyph unicode="F" horiz-adv-x="1054" d="M174 0v1440h807v-170h-619v-436h496v-170h-496v-664h-188z"/>
<glyph unicode="G" horiz-adv-x="1382" d="M1075 602h-260v164h442v-711q-18 -10 -58 -24.5t-100.5 -28.5t-140 -24.5t-180.5 -10.5q-166 0 -287.5 52.5t-203.5 150.5t-122 237.5t-40 311.5q0 166 40 304t120 238.5t198.5 156t278.5 55.5q147 0 265 -41t204 -113l-98 -137q-53 41 -144.5 77.5t-226.5 36.5 q-111 0 -192 -41t-134 -115.5t-79.5 -182t-26.5 -238.5q0 -133 26.5 -239.5t82 -182.5t140.5 -117t203 -41q104 0 174 11.5t119 27.5v424z"/>
<glyph unicode="H" horiz-adv-x="1388" d="M1026 1440h188v-1440h-188v684h-664v-684h-188v1440h188v-586h664v586z"/>
<glyph unicode="I" horiz-adv-x="536" d="M362 0h-188v1440h188v-1440z"/>
<glyph unicode="J" horiz-adv-x="983" d="M641 1440h188v-1041q0 -123 -33.5 -204.5t-91 -133t-133 -73t-161.5 -21.5q-84 0 -150.5 15.5t-114 34t-74 35t-30.5 20.5l65 137q6 -4 30 -17.5t60.5 -26.5t86 -23.5t106.5 -10.5q51 0 97 11.5t81 41t54.5 81.5t19.5 136v1039z"/>
<glyph unicode="K" horiz-adv-x="1226" d="M362 0h-188v1440h188v-666l578 666h207l-572 -660l631 -780h-241l-603 754v-754z"/>
<glyph unicode="L" horiz-adv-x="1058" d="M362 170h629v-170h-817v1440h188v-1270z"/>
<glyph unicode="M" horiz-adv-x="1611" d="M174 1440h207l426 -871l424 871h207v-1440h-185v1118l-370 -749h-166l-359 729v-1098h-184v1440z"/>
<glyph unicode="N" horiz-adv-x="1388" d="M1030 1440h184v-1440h-182l-674 1143v-1143h-184v1440h195l661 -1135v1135z"/>
<glyph unicode="O" horiz-adv-x="1523" d="M762 -33q-160 0 -278.5 54.5t-198.5 153.5t-120 237.5t-40 306.5q0 166 40 304t120 238.5t198.5 156t278.5 55.5q158 0 277.5 -55.5t199.5 -156t120 -238.5t40 -304q0 -168 -40 -306.5t-120 -237.5t-199.5 -153.5t-277.5 -54.5zM762 139q111 0 192.5 41t135 117t79 182.5 t25.5 239.5q0 131 -26.5 238.5t-80 182t-134.5 115.5t-191 41q-111 0 -192 -41t-134 -115.5t-79.5 -182t-26.5 -238.5q0 -133 25.5 -239.5t79.5 -182.5t135 -117t192 -41z"/>
<glyph unicode="P" horiz-adv-x="1163" d="M872 989q0 133 -79.5 210t-219.5 77h-215v-574h197q154 0 235.5 77t81.5 210zM1061 989q0 -74 -25.5 -153.5t-85 -146t-155 -108.5t-236.5 -42h-201v-539h-184v1440h404q133 0 225 -42t149.5 -108.5t83 -146.5t25.5 -154z"/>
<glyph unicode="Q" horiz-adv-x="1523" d="M1378 -279q-74 6 -151.5 31t-148 58.5t-130 76.5t-94.5 86q-47 -6 -92 -6q-160 0 -278.5 54.5t-198.5 153.5t-120 237.5t-40 306.5q0 166 40 304t120 238.5t198.5 156t278.5 55.5q158 0 277.5 -55.5t199.5 -156t120 -238.5t40 -304q0 -248 -85 -425t-255 -263 q59 -61 154.5 -102.5t201.5 -57.5zM762 139q111 0 192.5 41t135 117t79 182.5t25.5 239.5q0 131 -26.5 238.5t-80 182t-134.5 115.5t-191 41q-111 0 -192 -41t-134 -115.5t-79.5 -182t-26.5 -238.5q0 -133 25.5 -239.5t79.5 -182.5t135 -117t192 -41z"/>
<glyph unicode="R" horiz-adv-x="1234" d="M1133 0h-220l-342 580h-213v-580h-184v1440h416q133 0 222 -42t143.5 -106.5t77 -139.5t22.5 -142q0 -152 -78 -254.5t-221 -147.5zM866 1010q0 123 -72.5 194.5t-207.5 71.5h-228v-533h213q147 0 221 71t74 196z"/>
<glyph unicode="S" horiz-adv-x="1175" d="M471 664q-164 45 -263 138t-99 255q0 86 30.5 160.5t91 132t149.5 90.5t204 33q141 0 254.5 -34t179.5 -77l-70 -145q-20 12 -59 26t-88 28.5t-106.5 24t-114.5 9.5q-137 0 -211 -63.5t-74 -166.5q0 -90 56.5 -145.5t187.5 -91.5l168 -47q180 -51 272 -144.5t92 -263.5 q0 -92 -32.5 -169t-96 -132t-155 -85t-207.5 -30q-102 0 -186.5 16.5t-148 38t-104.5 44t-57 32.5l80 148q27 -16 67.5 -36t95 -35t118 -25.5t135.5 -10.5q154 0 225.5 64.5t71.5 167.5q0 37 -10.5 72.5t-37 67.5t-72.5 58.5t-118 46.5z"/>
<glyph unicode="T" horiz-adv-x="1196" d="M504 1270h-436v170h1060v-170h-436v-1270h-188v1270z"/>
<glyph unicode="U" horiz-adv-x="1374" d="M686 -33q-145 0 -245.5 37t-165 110.5t-93 185.5t-28.5 263v877h188v-854q0 -127 17.5 -213t57.5 -138.5t106.5 -75t162.5 -22.5q98 0 163.5 22.5t106.5 75t58.5 138.5t17.5 213v854h189v-877q0 -152 -29 -263.5t-93.5 -185t-166 -110.5t-246.5 -37z"/>
<glyph unicode="V" horiz-adv-x="1185" d="M606 215l379 1225h180l-456 -1440h-211l-478 1440h197z"/>
<glyph unicode="W" horiz-adv-x="1665" d="M1200 258l252 1182h182l-331 -1440h-211l-258 1128l-261 -1128h-211l-331 1440h196l246 -1180l264 1147h207z"/>
<glyph unicode="X" horiz-adv-x="1263" d="M51 0l473 758l-411 682h223l303 -518l311 518h203l-414 -666l473 -774h-227l-360 610l-365 -610h-209z"/>
<glyph unicode="Y" horiz-adv-x="1148" d="M479 651l-229 395l-230 394h209l355 -619l350 619h194l-460 -789v-651h-189v651z"/>
<glyph unicode="Z" horiz-adv-x="1204" d="M92 154l785 1116h-752v170h969v-154l-787 -1116h805v-170h-1020v154z"/>
<glyph unicode="[" horiz-adv-x="708" d="M174 1536h463v-156h-268v-1423h268v-154h-463v1733z"/>
<glyph unicode="\" horiz-adv-x="897" d="M670 -96l-639 1632h196l639 -1632h-196z"/>
<glyph unicode="]" horiz-adv-x="708" d="M535 -197h-463v154h268v1423h-268v156h463v-1733z"/>
<glyph unicode="^" horiz-adv-x="1204" d="M1087 647h-198l-293 606l-293 -606h-186l383 766h202z"/>
<glyph unicode="_" horiz-adv-x="1024" d="M0 -205h1024v-170h-1024v170z"/>
<glyph unicode="`" horiz-adv-x="1034" d="M713 1163l-457 209l80 162l442 -240z"/>
<glyph unicode="a" horiz-adv-x="1073" d="M754 477q-2 0 -27 4t-61.5 7.5t-79.5 6.5t-80 3q-66 0 -112 -16.5t-74.5 -44t-42 -64.5t-13.5 -80q0 -88 58.5 -131t152.5 -43q51 0 100.5 16.5t89.5 46t64.5 69.5t24.5 89v137zM766 0l-8 115q-47 -66 -137.5 -104t-186.5 -38q-61 0 -122.5 16.5t-110.5 53.5t-81 98.5 t-32 151.5q0 158 102.5 252t307.5 94q33 0 73.5 -2t77.5 -5t65.5 -6t39.5 -5v63q0 113 -66.5 162t-189.5 49q-111 0 -188 -24.5t-111 -45.5l-56 129q18 12 51 28.5t81.5 32t111 26t139.5 10.5q186 0 295 -91.5t109 -265.5v-694h-164z"/>
<glyph unicode="b" horiz-adv-x="1183" d="M143 1536h183v-639q8 18 31.5 44t62.5 50.5t92 42t123 17.5q113 0 196.5 -41t139 -113t82 -167t26.5 -206q0 -152 -41 -255t-106.5 -166.5t-148.5 -91t-167 -27.5q-61 0 -109 11t-85 27.5t-62.5 35t-40.5 34.5l-8 -92h-168v1536zM592 141q137 0 218 91.5t81 291.5 q0 78 -16.5 144.5t-51.5 114.5t-87 75t-124 27q-141 0 -214.5 -98.5t-73.5 -303.5v-223q29 -39 97.5 -79t170.5 -40z"/>
<glyph unicode="c" horiz-adv-x="1005" d="M293 512q0 -195 83 -284t222 -89q104 0 172 27t90 39l72 -129q-4 -6 -31 -22.5t-71 -34t-104 -31t-134 -13.5q-236 0 -362 140.5t-126 396.5q0 119 33 218t96.5 170t153.5 110t207 39q78 0 139.5 -16.5t105.5 -36t69.5 -38t29.5 -24.5l-80 -131q-6 6 -27.5 18.5 t-55.5 26.5t-79 24.5t-98 10.5q-139 0 -222 -90.5t-83 -280.5z"/>
<glyph unicode="d" horiz-adv-x="1183" d="M594 141q100 0 168.5 39t97.5 78v223q0 209 -72.5 306.5t-216.5 97.5q-72 0 -124 -28t-86.5 -77t-51 -117.5t-16.5 -150.5q0 -100 21.5 -171t60.5 -115t94 -64.5t125 -20.5zM872 0l-8 90q-43 -41 -114.5 -73.5t-192.5 -32.5q-86 0 -167 25.5t-144.5 87t-102.5 162.5 t-39 253q0 111 28 209t83 172t139 116t195 42q72 0 126 -18.5t91 -43t59.5 -49.5t32.5 -39v635h182v-1536h-168z"/>
<glyph unicode="e" horiz-adv-x="1120" d="M954 47q-10 -6 -38.5 -18.5t-71.5 -24.5t-99.5 -21.5t-126.5 -9.5q-256 0 -385 143.5t-129 397.5q0 119 31 218t90.5 170t146.5 110t201 39q104 0 186.5 -32t139.5 -99.5t88 -173t31 -252.5v-29h-729q10 -150 91 -240t253 -90q106 0 175 18.5t97 28.5zM829 606 q-10 139 -68.5 215t-187.5 76q-131 0 -195.5 -78t-84.5 -213h536z"/>
<glyph unicode="f" horiz-adv-x="792" d="M61 870v154h195v117q0 92 22.5 170t69.5 133t123 87t180 32q70 0 121 -9.5t66 -13.5l-21 -139q-10 2 -50 6t-83 4q-117 0 -181.5 -62.5t-64.5 -222.5v-102h318v-154h-318v-870h-182v870h-195z"/>
<glyph unicode="g" horiz-adv-x="1159" d="M1128 1024v-137h-53q-10 0 -28.5 1t-39.5 2l-43 2q-22 1 -36 3q57 -43 79.5 -109.5t22.5 -115.5q0 -106 -42 -177t-105.5 -114t-140 -60.5t-146.5 -17.5q-59 0 -122.5 9t-115.5 30q-4 -2 -12 -12.5t-16 -25.5t-15.5 -34.5t-7.5 -38.5q0 -23 7.5 -41t30 -33.5t63.5 -24.5 t108 -11l211 -4q78 -2 148.5 -12.5t124 -39t85 -79t31.5 -129.5q0 -68 -38 -128.5t-110.5 -104.5t-179 -70.5t-243.5 -26.5q-80 0 -162 12t-148.5 43t-109.5 83t-43 132q0 68 40 128.5t97 101.5q-55 39 -72.5 85t-17.5 85q0 72 41 124t82 87q-53 47 -84 112.5t-31 157.5 q0 104 40 176t102.5 116t140.5 63.5t153 19.5q51 0 90 -4.5t70 -9.5t58.5 -9t58.5 -4h278zM586 432q49 0 96 13.5t85 43t60.5 75.5t22.5 112t-22.5 112t-60.5 75.5t-85 43t-96 13.5t-97.5 -13.5t-85 -43t-60.5 -76t-24 -111.5q0 -66 24 -112t60.5 -75.5t85 -43t97.5 -13.5z M537 -49q-76 2 -126.5 9t-72.5 11q-29 -27 -49.5 -66.5t-20.5 -84.5q0 -47 24.5 -75t66.5 -44t95.5 -21.5t108.5 -5.5q78 0 143.5 10.5t113.5 31t75 52t27 72.5q0 18 -6.5 38t-25 34t-55 24.5t-98.5 10.5z"/>
<glyph unicode="h" horiz-adv-x="1155" d="M1012 0h-183v629q0 78 -15 129t-44 80.5t-67.5 41t-84.5 11.5q-80 0 -135 -31t-90 -82t-51 -118.5t-16 -141.5v-518h-183v1536h183v-643q14 25 41.5 52.5t67.5 51t94.5 39t121.5 15.5q176 0 268.5 -102.5t92.5 -280.5v-668z"/>
<glyph unicode="i" horiz-adv-x="489" d="M154 1024h182v-1024h-182v1024zM362 1356q0 -55 -31.5 -90t-86.5 -35t-87 36t-32 89t31.5 89t87.5 36q55 0 86.5 -35t31.5 -90z"/>
<glyph unicode="j" horiz-adv-x="489" d="M154 1024h182v-1081q0 -217 -93 -317.5t-286 -100.5q-76 0 -162 24l19 142q39 -10 71.5 -13.5t61.5 -3.5q61 0 101 16.5t63.5 53.5t33 94.5t9.5 141.5v1044zM362 1356q0 -55 -31.5 -90t-86.5 -35t-87 36t-32 89t31.5 89t87.5 36q55 0 86.5 -35t31.5 -90z"/>
<glyph unicode="k" horiz-adv-x="1056" d="M326 0h-183v1536h183v-971l444 459h205l-440 -453l512 -571h-240l-481 545v-545z"/>
<glyph unicode="l" horiz-adv-x="489" d="M154 1536h182v-1536h-182v1536z"/>
<glyph unicode="m" horiz-adv-x="1763" d="M326 0h-183v1024h168l8 -139q14 25 39 53.5t62 54t89 42t120 16.5q119 0 190.5 -50.5t110.5 -136.5q18 31 48 65t72 60.5t96 44t122 17.5q180 0 266 -101.5t86 -275.5v-674h-182v643q0 141 -50.5 194.5t-146.5 53.5q-74 0 -125 -33t-83 -85t-46 -120.5t-14 -138.5v-514 h-182v643q0 141 -52.5 194.5t-144.5 53.5q-74 0 -125 -32t-83 -85t-46 -120.5t-14 -139.5v-514z"/>
<glyph unicode="n" horiz-adv-x="1155" d="M1012 0h-183v629q0 78 -15 129t-44 80.5t-67.5 41t-84.5 11.5q-80 0 -136 -32t-91 -86t-50 -123.5t-15 -145.5v-504h-183v1024h168l8 -141q12 25 39 54.5t69 55t97.5 42t126.5 16.5q176 0 268.5 -102.5t92.5 -280.5v-668z"/>
<glyph unicode="o" horiz-adv-x="1191" d="M596 -27q-117 0 -209 39t-154.5 110t-95.5 170t-33 220q0 119 33 218t96.5 171t154.5 111t208 39t208 -39t154.5 -110t96 -170t32.5 -220q0 -123 -32.5 -222.5t-95 -170t-154.5 -108.5t-209 -38zM596 135q156 0 229.5 104.5t73.5 272.5q0 82 -18.5 150.5t-56.5 118.5 t-95 79t-133 29q-152 0 -227.5 -104.5t-75.5 -272.5q0 -84 18.5 -153.5t55 -119t94 -77t135.5 -27.5z"/>
<glyph unicode="p" horiz-adv-x="1183" d="M143 -451v1475h168l8 -133q14 25 41 53.5t67 52t91 39t117 15.5q113 0 196.5 -41t139 -113t82 -167t26.5 -206q0 -152 -41 -254t-107.5 -166.5t-151.5 -92t-171 -27.5q-104 0 -171.5 23.5t-110.5 47.5v-506h-183zM324 233q33 -29 101.5 -60.5t166.5 -31.5q137 0 218 91.5 t81 291.5q0 78 -16.5 144.5t-51.5 114.5t-87 75t-124 27q-141 0 -214.5 -98.5t-73.5 -303.5v-250z"/>
<glyph unicode="q" horiz-adv-x="1183" d="M549 1051q63 0 115.5 -15.5t92.5 -38t66.5 -49t40.5 -51.5l8 127h168v-1475h-182v521l-47 -28q-27 -15 -62.5 -28.5t-83 -21.5t-108.5 -8q-86 0 -167 25.5t-144.5 87t-102.5 162.5t-39 253q0 111 28 209t83 172t139 116t195 42zM571 885q-72 0 -124 -28t-86.5 -77 t-51 -117.5t-16.5 -150.5q0 -100 21.5 -171t60.5 -115t94 -64.5t125 -20.5q100 0 168.5 38t97.5 75v229q0 205 -74 303.5t-215 98.5z"/>
<glyph unicode="r" horiz-adv-x="784" d="M741 868q-10 4 -39.5 8.5t-60.5 4.5q-143 0 -229 -111t-86 -317v-453h-183v1024h168l8 -174q18 35 48 68.5t71 59.5t93.5 42t115.5 16q29 0 67 -5t44 -7z"/>
<glyph unicode="s" horiz-adv-x="991" d="M133 219q51 -27 141.5 -59.5t212.5 -32.5q68 0 113 11.5t71.5 30.5t37 46t10.5 57q0 57 -41 95.5t-148 58.5l-127 25q-66 12 -121 34.5t-96 58.5t-64.5 85t-23.5 114q0 70 29 126.5t81 96.5t125 62.5t163 22.5q119 0 213 -29t153 -64l-57 -133q-14 8 -46 20.5t-73 24 t-90 19.5t-100 8q-115 0 -168.5 -38t-53.5 -107q0 -29 8.5 -50.5t30 -39t58.5 -31t94 -23.5l129 -24q72 -14 129 -37t97 -57.5t61.5 -84t21.5 -116.5q0 -143 -107.5 -229.5t-306.5 -86.5q-143 0 -250.5 37t-168.5 78z"/>
<glyph unicode="t" horiz-adv-x="796" d="M37 1024h205v283l182 49v-332h305v-154h-305v-553q0 -61 15.5 -98t43 -56.5t65.5 -26.5t85 -7t76.5 4t40.5 6l14 -137q-27 -6 -75 -12t-107 -6q-176 0 -258 76.5t-82 236.5v573h-205v154z"/>
<glyph unicode="u" horiz-adv-x="1155" d="M143 1024h183v-641q0 -74 15 -122t43 -76.5t66.5 -40t86.5 -11.5q80 0 136 32t91 86t50 123.5t15 145.5v504h183v-1024h-168l-8 137q-12 -25 -39 -53.5t-68 -53t-96 -41t-127 -16.5q-176 0 -269.5 102.5t-93.5 280.5v668z"/>
<glyph unicode="v" horiz-adv-x="1005" d="M20 1024h195l295 -846l291 846h184l-379 -1024h-205z"/>
<glyph unicode="w" horiz-adv-x="1417" d="M27 1024h192l215 -829l195 794h176l192 -794l211 829h183l-301 -1024h-193l-184 760l-191 -760h-194z"/>
<glyph unicode="x" horiz-adv-x="1013" d="M766 0l-270 399l-273 -399h-192l368 528l-344 496h215l238 -352l237 352h191l-334 -479l381 -545h-217z"/>
<glyph unicode="y" horiz-adv-x="1026" d="M205 -451l213 508l-398 967h205l291 -748l299 748h191l-623 -1475h-178z"/>
<glyph unicode="z" horiz-adv-x="1026" d="M102 145l603 725h-584v154h797v-147l-601 -723h607v-154h-822v145z"/>
<glyph unicode="{" horiz-adv-x="714" d="M113 745q80 16 111.5 68.5t31.5 124.5v262q0 76 16.5 138.5t60.5 106.5t118.5 67.5t191.5 23.5v-156q-72 -2 -113 -15t-60 -39t-24.5 -62.5t-5.5 -81.5v-285q0 -78 -32.5 -132t-100.5 -95q68 -41 100.5 -95.5t32.5 -132.5v-284q0 -47 5.5 -83t24.5 -61.5t60 -39 t113 -15.5v-156q-117 0 -191.5 23.5t-118.5 68t-60.5 105.5t-16.5 139v262q0 72 -31.5 124.5t-111.5 68.5v151z"/>
<glyph unicode="|" horiz-adv-x="552" d="M184 -451v1987h185v-1987h-185z"/>
<glyph unicode="}" horiz-adv-x="714" d="M602 594q-82 -16 -112.5 -68.5t-30.5 -124.5v-262q0 -78 -16.5 -139t-60.5 -105.5t-119 -68t-191 -23.5v156q70 2 110.5 15.5t61 39t25.5 61.5t5 83v284q0 78 33 132.5t99 95.5q-66 41 -99 95t-33 132v285q0 45 -5 81.5t-25.5 62.5t-61.5 39t-110 15v156 q117 0 191.5 -23.5t118.5 -67.5t60.5 -106.5t16.5 -138.5v-262q0 -72 30.5 -124t112.5 -69v-151z"/>
<glyph unicode="~" horiz-adv-x="1210" d="M791 836q70 0 121 26.5t112 83.5l104 -127q-29 -29 -63.5 -58.5t-76.5 -52t-88 -37t-97 -14.5q-72 0 -129.5 27t-104.5 55q-37 23 -74.5 41.5t-74.5 18.5q-72 0 -122 -27t-112 -84l-104 127q27 29 62.5 57.5t76.5 52t88 38t99 14.5q72 0 129 -26.5t104 -55.5 q37 -23 75 -41t75 -18z"/>
<glyph unicode="¡" horiz-adv-x="618" d="M215 594h188v-1045h-188v1045zM178 913q0 59 36 98.5t95 39.5t95 -39t36 -99q0 -59 -35.5 -98t-95.5 -39q-59 0 -95 39t-36 98z"/>
<glyph unicode="¢" d="M598 -27v203q-195 27 -297 164t-102 367q0 106 26.5 197t77.5 161t125 114t170 58v203h133v-199q68 -4 121 -20.5t92 -36t61.5 -35.5t26.5 -21l-74 -124q-12 10 -72.5 40.5t-154.5 38.5v-757q90 6 149 31l81 36l65 -123q-4 -6 -26.5 -20t-61.5 -30.5t-91 -31t-116 -18.5 v-197h-133zM381 707q0 -166 57.5 -255.5t159.5 -115.5v737q-102 -29 -159.5 -118.5t-57.5 -247.5z"/>
<glyph unicode="£" d="M147 866h150q-6 53 -10 101.5t-4 85.5q0 88 24.5 164.5t75.5 133t130 89.5t189 33q84 0 152 -20.5t115 -46.5t75.5 -51.5t36.5 -33.5l-98 -123q-6 6 -28.5 24.5t-57.5 38t-83 35t-109 15.5q-123 0 -181.5 -66.5t-58.5 -200.5q0 -86 12 -178h344v-153h-321 q8 -59 14 -111.5t6 -87.5q0 -76 -19.5 -136.5t-46 -104.5t-52 -72.5t-37.5 -40.5h692v-160h-883v145l52 70q28 37 52.5 83t41 102.5t16.5 129.5q0 33 -5 80l-12 103h-172v153z"/>
<glyph unicode="¤" d="M938 926q29 -45 45 -99.5t16 -119.5q0 -125 -61 -222l156 -153l-113 -113l-156 156q-96 -61 -219 -62q-125 0 -219 62l-156 -156l-112 113l153 153q-29 47 -44 101.5t-15 120.5t15.5 120t43.5 99l-153 155l112 113l156 -156q47 29 102.5 45.5t116.5 16.5 q59 0 115.5 -16.5t103.5 -45.5l156 156l113 -113zM852 707q0 59 -19.5 107t-53.5 82t-79 51.5t-94 17.5t-94 -17.5t-79 -51.5t-53.5 -82t-19.5 -107t19.5 -107.5t53.5 -82.5t79 -51t94 -17t94 17t79 51t53.5 82.5t19.5 107.5z"/>
<glyph unicode="¥" d="M197 420h319v184h-319v139h260l-389 697h204l344 -637l340 637h191l-391 -697h264v-139h-324v-184h324v-139h-324v-281h-180v281h-319v139z"/>
<glyph unicode="¦" horiz-adv-x="552" d="M184 1536h185v-662h-185v662zM369 -451h-185v662h185v-662z"/>
<glyph unicode="§" horiz-adv-x="1193" d="M561 -125q43 0 87 7t79 27.5t56.5 57.5t21.5 96q0 49 -20.5 83t-50 58.5t-62.5 41t-60 26.5l-180 72q-57 23 -106.5 53.5t-86 69.5t-57 89t-20.5 114q0 96 39 163.5t106 131.5q-111 94 -110 243q0 94 34.5 162t91 111t131 62.5t154.5 19.5q78 0 143.5 -15.5t113.5 -34 t77 -36t33 -23.5l-76 -125q-6 6 -32.5 18.5t-66.5 27t-89 24.5t-103 10q-39 0 -80 -7t-74.5 -27.5t-56 -57.5t-22.5 -96q0 -49 20.5 -83t50 -58.5t62.5 -41t59 -26.5l181 -72q57 -23 106 -53.5t86 -69.5t57.5 -89t20.5 -114q0 -98 -39 -164.5t-109 -130.5q57 -49 87 -108 t30 -135q0 -94 -36 -162t-95 -111t-136 -62.5t-159 -19.5q-78 0 -144.5 15.5t-115.5 34t-80 36t-35 23.5l70 127q6 -6 34.5 -19.5t70.5 -26.5t94.5 -24.5t105.5 -11.5zM758 393q35 39 60.5 81t25.5 101q0 43 -16.5 77t-45 61.5t-66.5 49t-79 38.5l-156 63q-16 6 -30.5 12.5 t-28.5 14.5q-35 -39 -60.5 -81t-25.5 -101q0 -43 17.5 -77t46 -61.5t65.5 -49t78 -38.5l109 -45q57 -22 106 -45z"/>
<glyph unicode="¨" horiz-adv-x="1034" d="M831 1331q0 -53 -31.5 -88t-84.5 -35t-85 35t-32 88t32 88t85 35t84.5 -35t31.5 -88zM436 1331q0 -53 -31.5 -88t-85.5 -35q-53 0 -84.5 35t-31.5 88t31.5 88t84.5 35t85 -35t32 -88z"/>
<glyph unicode="©" horiz-adv-x="1654" d="M1573 723q0 -158 -57.5 -294t-158 -237.5t-236.5 -160t-294 -58.5t-294 58.5t-236 160t-157.5 237.5t-57.5 294q0 156 57.5 293t157.5 238.5t237.5 160t294.5 58.5q156 0 292 -58.5t236.5 -160t158 -238.5t57.5 -293zM1415 721q0 127 -44 237.5t-123 192.5t-186.5 129 t-232.5 47q-127 0 -234.5 -47t-186 -129t-123.5 -192.5t-45 -237.5t44 -237.5t122.5 -192.5t186 -128t234.5 -46t234.5 46t186.5 128t123 192.5t44 237.5zM627 721q0 -135 60.5 -196.5t162.5 -61.5q76 0 129 17.5t70 25.5l57 -103q-4 -4 -24.5 -16t-54.5 -24.5t-80 -22.5 t-101 -10q-180 0 -276.5 102.5t-96.5 288.5q0 176 97.5 283.5t275.5 107.5q59 0 107 -11t82 -26.5t52.5 -29t22.5 -17.5l-61 -104q-10 8 -65.5 30.5t-133.5 22.5q-102 0 -162.5 -62.5t-60.5 -193.5z"/>
<glyph unicode="ª" horiz-adv-x="763" d="M504 1120q-31 4 -71 8.5t-79 4.5q-53 0 -92 -26t-39 -77q0 -96 109 -96q76 0 124 33.5t48 93.5v59zM512 842l-6 69q-33 -41 -86 -63.5t-123 -22.5q-39 0 -77 10.5t-67.5 34t-48 61.5t-18.5 91q0 94 64.5 153.5t205.5 59.5q43 0 87 -4t61 -6v16q0 57 -35 88t-117 31 q-72 0 -120 -15.5t-70 -27.5l-39 98q23 14 83 36t165 22q127 0 198.5 -57.5t71.5 -180.5v-393h-129zM641 592h-555v129h555v-129z"/>
<glyph unicode="«" horiz-adv-x="1017" d="M338 117l-236 395l236 395h174l-227 -395l227 -395h-174zM741 117l-236 395l236 395h174l-227 -395l227 -395h-174z"/>
<glyph unicode="¬" d="M195 809v164h823v-533h-172v369h-651z"/>
<glyph unicode="­" horiz-adv-x="833" d="M123 668h588v-189h-588v189z"/>
<glyph unicode="®" horiz-adv-x="1654" d="M1165 338h-159l-185 291h-129v-291h-137v764h301q76 0 127 -23.5t82 -58.5t44 -77t13 -79q0 -84 -44 -136t-122 -79zM983 864q0 68 -42 94.5t-120 26.5h-129v-237h123q82 0 125 25t43 91zM1573 723q0 -158 -57.5 -294t-158 -237.5t-236.5 -160t-294 -58.5t-294 58.5 t-236 160t-157.5 237.5t-57.5 294q0 156 57.5 293t157.5 238.5t237.5 160t294.5 58.5q156 0 292 -58.5t236.5 -160t158 -238.5t57.5 -293zM1415 721q0 127 -44 237.5t-123 192.5t-186.5 129t-232.5 47q-127 0 -234.5 -47t-186 -129t-123.5 -192.5t-45 -237.5t44 -237.5 t122.5 -192.5t186 -128t234.5 -46t234.5 46t186.5 128t123 192.5t44 237.5z"/>
<glyph unicode="¯" horiz-adv-x="1034" d="M221 1229v147h594v-147h-594z"/>
<glyph unicode="°" horiz-adv-x="821" d="M719 1141q0 -66 -23.5 -121t-65.5 -95t-98.5 -62.5t-119.5 -22.5q-66 0 -122.5 22.5t-98 62.5t-65.5 94t-24 120t24 121t65.5 95t97 62.5t121.5 22.5t122 -22.5t98 -62.5t65.5 -95.5t23.5 -118.5zM573 1141q0 68 -46 115t-117 47q-68 0 -114 -47.5t-46 -116.5 q0 -70 46 -117t116 -47t115.5 47t45.5 119z"/>
<glyph unicode="±" d="M154 819h366v369h172v-369h367v-164h-367v-368h-172v368h-366v164zM1059 164v-164h-905v164h905z"/>
<glyph unicode="²" horiz-adv-x="868" d="M381 1042q74 47 115 86t41 86q0 39 -32 67t-97 28q-35 0 -67 -11.5t-57.5 -27t-45 -32.5t-29.5 -30l-92 88q14 18 41.5 44t64.5 47.5t84 37t103 15.5q74 0 126 -18.5t86.5 -49.5t51 -70.5t16.5 -82.5q0 -47 -17.5 -86t-47 -71t-66.5 -60.5t-76 -53.5q-82 -53 -126 -91 t-58 -85h401v-133h-567v41q0 61 15.5 111.5t46 93.5t78 80.5t108.5 76.5z"/>
<glyph unicode="³" horiz-adv-x="868" d="M274 1106h93q86 0 122.5 30.5t36.5 75.5q0 41 -29.5 70t-95.5 29q-70 0 -125 -28t-79 -48l-74 96q14 14 42 33.5t63.5 36t79.5 28t95 11.5q143 0 210 -63.5t67 -149.5q0 -61 -37 -106.5t-88 -69.5q61 -20 100 -68.5t39 -114.5q0 -121 -93 -183t-234 -62q-78 0 -140.5 10 t-103.5 22l35 127q29 -10 79 -19t121 -9q182 0 183 114q0 47 -38 77t-132 30h-97v131z"/>
<glyph unicode="´" horiz-adv-x="1034" d="M256 1294l442 240l80 -162l-456 -209z"/>
<glyph unicode="µ" horiz-adv-x="1155" d="M528 -27q-76 0 -127 21.5t-75 46.5v-492h-183v1475h183v-635q0 -74 15 -124t44 -78.5t66.5 -41t85.5 -12.5q80 0 136 32t91 86t50 123.5t15 145.5v504h183v-1024h-168l-8 137q-33 -61 -111 -112.5t-197 -51.5z"/>
<glyph unicode="¶" horiz-adv-x="1325" d="M545 692q-102 0 -184 26.5t-139.5 76t-88.5 117t-31 147.5q0 104 35 177t99.5 118t152.5 65.5t197 20.5h555v-1719h-180v1575h-236v-1575h-180v971z"/>
<glyph unicode="·" horiz-adv-x="552" d="M408 709q0 -59 -36 -98.5t-96 -39.5q-59 0 -95 39t-36 99q0 59 36 98t95 39t95.5 -39t36.5 -98z"/>
<glyph unicode="¸" horiz-adv-x="1034" d="M453 0h120l-20 -100q94 -8 144.5 -57.5t50.5 -121.5q0 -49 -20.5 -85.5t-56.5 -62.5t-82 -38t-97 -12q-88 0 -141.5 14t-63.5 19l32 104q35 -10 71 -17.5t75 -7.5q66 0 99.5 21.5t33.5 58.5q0 29 -27.5 50.5t-91.5 21.5q-37 0 -73 -6z"/>
<glyph unicode="¹" horiz-adv-x="868" d="M406 1253l-193 -106l-66 121l297 157h115v-786h-153v614z"/>
<glyph unicode="º" horiz-adv-x="794" d="M397 825q-154 0 -234.5 88t-80.5 236q0 145 82 235.5t233 90.5q152 0 234 -89.5t82 -236.5t-81 -235.5t-235 -88.5zM397 938q92 0 131 59.5t39 151.5t-40 152.5t-130 60.5q-88 0 -129 -60.5t-41 -152.5q0 -94 39 -152.5t131 -58.5zM707 592h-619v129h619v-129z"/>
<glyph unicode="»" horiz-adv-x="1017" d="M102 117l228 395l-228 395h174l236 -395l-236 -395h-174zM505 117l228 395l-228 395h174l236 -395l-236 -395h-174z"/>
<glyph unicode="¼" horiz-adv-x="1875" d="M347 1253l-193 -106l-66 121l297 157h115v-786h-153v614zM1169 1413h182l-768 -1413h-182zM1561 465v-158h106v-129h-106v-176h-139v176h-367v111l330 499h159l-321 -481h199v158h139z"/>
<glyph unicode="½" horiz-adv-x="1875" d="M347 1253l-193 -106l-66 121l297 157h115v-786h-153v614zM1169 1413h182l-768 -1413h-182zM1348 405q74 47 115 86t41 86q0 39 -32 67t-97 28q-35 0 -67 -11.5t-57.5 -27t-45 -32.5t-29.5 -30l-92 88q14 18 41.5 44t64.5 47.5t84 37t103 15.5q74 0 126 -18.5t86.5 -49.5 t51 -70.5t16.5 -82.5q0 -47 -17.5 -86t-47 -71t-66.5 -60.5t-76 -53.5q-82 -53 -126 -91t-58 -85h401v-133h-567v41q0 61 15.5 111.5t46 93.5t78 80.5t108.5 76.5z"/>
<glyph unicode="¾" horiz-adv-x="1875" d="M256 1106h93q86 0 122.5 30.5t36.5 75.5q0 41 -29.5 70t-95.5 29q-70 0 -125 -28t-79 -48l-74 96q14 14 42 33.5t63.5 36t79.5 28t95 11.5q143 0 210 -63.5t67 -149.5q0 -61 -37 -106.5t-88 -69.5q61 -20 100 -68.5t39 -114.5q0 -121 -93 -183t-234 -62q-78 0 -140.5 10 t-103.5 22l35 127q29 -10 79 -19t121 -9q182 0 183 114q0 47 -38 77t-132 30h-97v131zM1231 1413h182l-768 -1413h-182zM1622 465v-158h106v-129h-106v-176h-139v176h-367v111l330 499h159l-321 -481h199v158h139z"/>
<glyph unicode="¿" horiz-adv-x="1112" d="M719 602q0 -78 -17.5 -138.5t-48 -109.5t-71.5 -91t-86 -83l-53 -50q-28 -28 -51 -59.5t-37.5 -70.5t-14.5 -84q0 -96 60.5 -159.5t199.5 -63.5q106 0 178 46t131 114l115 -105q-23 -33 -62.5 -71.5t-95 -72.5t-127 -56.5t-155.5 -22.5q-127 0 -212 34.5t-136.5 90 t-72 124t-20.5 134.5q0 63 17.5 114.5t45 94.5t62.5 78.5t70 66.5l74 68q35 33 60.5 70.5t40.5 87t15 114.5h191zM494 913q0 59 35.5 98.5t95.5 39.5q59 0 95 -39t36 -99q0 -59 -36 -98t-95 -39t-95 39t-36 98z"/>
<glyph unicode="À" horiz-adv-x="1191" d="M856 369h-537l-118 -369h-181l476 1440h198l477 -1440h-196zM373 535h430l-213 665zM780 1548l-508 183l68 165l498 -215z"/>
<glyph unicode="Á" horiz-adv-x="1191" d="M856 369h-537l-118 -369h-181l476 1440h198l477 -1440h-196zM373 535h430l-213 665zM354 1681l498 215l68 -165l-508 -183z"/>
<glyph unicode="Â" horiz-adv-x="1191" d="M856 369h-537l-118 -369h-181l476 1440h198l477 -1440h-196zM373 535h430l-213 665zM230 1645l282 225h170l283 -225l-78 -97l-291 185l-289 -185z"/>
<glyph unicode="Ã" horiz-adv-x="1191" d="M856 369h-537l-118 -369h-181l476 1440h198l477 -1440h-196zM373 535h430l-213 665zM218 1587q0 119 57 180.5t158 61.5q51 0 89 -17.5t70 -36.5l64 -37q31 -17 67 -18q53 0 74 29t21 76h135q0 -123 -57.5 -182.5t-157.5 -59.5q-51 0 -89 17.5t-71 36.5l-64 37 q-31 17 -67 18q-53 0 -73.5 -29t-20.5 -76h-135z"/>
<glyph unicode="Ä" horiz-adv-x="1191" d="M856 369h-537l-118 -369h-181l476 1440h198l477 -1440h-196zM373 535h430l-213 665zM930 1714q0 -57 -33 -93t-90 -36t-90 37t-33 92t33 92t90 37t90 -36t33 -93zM510 1714q0 -57 -32.5 -93t-90.5 -36q-57 0 -90 37t-33 92t33 92t90 37t90 -36t33 -93z"/>
<glyph unicode="Å" horiz-adv-x="1191" d="M856 369h-537l-118 -369h-181l439 1331q-43 29 -68.5 76t-25.5 106q0 49 18 90.5t50 72t74 47t89 16.5q98 0 164.5 -62.5t66.5 -160.5q0 -59 -26.5 -107.5t-71.5 -79.5l442 -1329h-196zM373 535h430l-213 686zM709 1513q0 47 -33 80t-80 33t-79 -32.5t-32 -80.5 q0 -47 32 -80.5t79 -33.5t80 33.5t33 80.5z"/>
<glyph unicode="Æ" horiz-adv-x="1808" d="M1726 1440v-170h-639v-436h496v-170h-496v-494h660v-170h-842v424h-469l-229 -424h-187l783 1440h923zM522 584h383v706z"/>
<glyph unicode="Ç" horiz-adv-x="1271" d="M653 -16q-262 31 -395 224t-133 511q0 166 40 303t120 234.5t198.5 151.5t278.5 54q145 0 253.5 -42t194.5 -113l-98 -138q-27 20 -59.5 41t-75.5 37.5t-95.5 26.5t-119.5 10q-219 0 -325.5 -150.5t-106.5 -414.5t105.5 -413.5t324.5 -149.5q61 0 115.5 11t98.5 27.5 t78.5 37t57.5 36.5l98 -137q-59 -53 -168.5 -101t-261.5 -53l-16 -79q100 -8 151.5 -58.5t51.5 -124.5q0 -53 -21.5 -91t-57.5 -64.5t-84 -39t-102 -12.5q-92 0 -147 14.5t-66 18.5l33 109q35 -10 73 -17.5t77 -7.5q68 0 104.5 21.5t36.5 62.5q0 29 -29.5 50.5t-93.5 21.5 q-41 0 -78 -6z"/>
<glyph unicode="È" horiz-adv-x="1103" d="M174 1440h848v-170h-660v-436h517v-170h-517v-494h680v-170h-868v1440zM837 1548l-508 183l68 165l498 -215z"/>
<glyph unicode="É" horiz-adv-x="1103" d="M174 1440h848v-170h-660v-436h517v-170h-517v-494h680v-170h-868v1440zM329 1681l498 215l68 -165l-508 -183z"/>
<glyph unicode="Ê" horiz-adv-x="1103" d="M174 1440h848v-170h-660v-436h517v-170h-517v-494h680v-170h-868v1440zM246 1645l282 225h170l283 -225l-78 -97l-291 185l-289 -185z"/>
<glyph unicode="Ë" horiz-adv-x="1103" d="M174 1440h848v-170h-660v-436h517v-170h-517v-494h680v-170h-868v1440zM926 1714q0 -57 -33 -93t-90 -36t-90 37t-33 92t33 92t90 37t90 -36t33 -93zM506 1714q0 -57 -32.5 -93t-90.5 -36q-57 0 -90 37t-33 92t33 92t90 37t90 -36t33 -93z"/>
<glyph unicode="Ì" horiz-adv-x="536" d="M362 0h-188v1440h188v-1440zM440 1548l-508 183l68 165l498 -215z"/>
<glyph unicode="Í" horiz-adv-x="536" d="M362 0h-188v1440h188v-1440zM43 1681l498 215l68 -165l-508 -183z"/>
<glyph unicode="Î" horiz-adv-x="536" d="M362 0h-188v1440h188v-1440zM-96 1645l282 225h170l283 -225l-78 -97l-291 185l-289 -185z"/>
<glyph unicode="Ï" horiz-adv-x="536" d="M362 0h-188v1440h188v-1440zM604 1714q0 -57 -33 -93t-90 -36t-90 37t-33 92t33 92t90 37t90 -36t33 -93zM184 1714q0 -57 -32.5 -93t-90.5 -36q-57 0 -90 37t-33 92t33 92t90 37t90 -36t33 -93z"/>
<glyph unicode="Ð" horiz-adv-x="1427" d="M20 811h154v629h479q158 0 280 -53.5t204 -148.5t124 -227t42 -292q0 -162 -42 -295t-124 -227.5t-204 -145.5t-280 -51h-479v657h-154v154zM653 170q223 0 334 147.5t111 403.5t-112 402.5t-333 146.5h-291v-459h328v-154h-328v-487h291z"/>
<glyph unicode="Ñ" horiz-adv-x="1388" d="M1030 1440h184v-1440h-182l-674 1143v-1143h-184v1440h195l661 -1135v1135zM316 1587q0 119 57 180.5t158 61.5q51 0 89 -17.5t70 -36.5l64 -37q31 -17 67 -18q53 0 74 29t21 76h135q0 -123 -57.5 -182.5t-157.5 -59.5q-51 0 -89 17.5t-71 36.5l-64 37q-31 17 -67 18 q-53 0 -73.5 -29t-20.5 -76h-135z"/>
<glyph unicode="Ò" horiz-adv-x="1523" d="M762 -33q-160 0 -278.5 54.5t-198.5 153.5t-120 237.5t-40 306.5q0 166 40 304t120 238.5t198.5 156t278.5 55.5q158 0 277.5 -55.5t199.5 -156t120 -238.5t40 -304q0 -168 -40 -306.5t-120 -237.5t-199.5 -153.5t-277.5 -54.5zM762 139q111 0 192.5 41t135 117t79 182.5 t25.5 239.5q0 131 -26.5 238.5t-80 182t-134.5 115.5t-191 41q-111 0 -192 -41t-134 -115.5t-79.5 -182t-26.5 -238.5q0 -133 25.5 -239.5t79.5 -182.5t135 -117t192 -41zM966 1548l-508 183l68 165l498 -215z"/>
<glyph unicode="Ó" horiz-adv-x="1523" d="M762 -33q-160 0 -278.5 54.5t-198.5 153.5t-120 237.5t-40 306.5q0 166 40 304t120 238.5t198.5 156t278.5 55.5q158 0 277.5 -55.5t199.5 -156t120 -238.5t40 -304q0 -168 -40 -306.5t-120 -237.5t-199.5 -153.5t-277.5 -54.5zM762 139q111 0 192.5 41t135 117t79 182.5 t25.5 239.5q0 131 -26.5 238.5t-80 182t-134.5 115.5t-191 41q-111 0 -192 -41t-134 -115.5t-79.5 -182t-26.5 -238.5q0 -133 25.5 -239.5t79.5 -182.5t135 -117t192 -41zM966 1548l-508 183l68 165l498 -215z"/>
<glyph unicode="Ô" horiz-adv-x="1523" d="M762 -33q-160 0 -278.5 54.5t-198.5 153.5t-120 237.5t-40 306.5q0 166 40 304t120 238.5t198.5 156t278.5 55.5q158 0 277.5 -55.5t199.5 -156t120 -238.5t40 -304q0 -168 -40 -306.5t-120 -237.5t-199.5 -153.5t-277.5 -54.5zM762 139q111 0 192.5 41t135 117t79 182.5 t25.5 239.5q0 131 -26.5 238.5t-80 182t-134.5 115.5t-191 41q-111 0 -192 -41t-134 -115.5t-79.5 -182t-26.5 -238.5q0 -133 25.5 -239.5t79.5 -182.5t135 -117t192 -41zM396 1645l282 225h170l283 -225l-78 -97l-291 185l-289 -185z"/>
<glyph unicode="Õ" horiz-adv-x="1523" d="M762 -33q-160 0 -278.5 54.5t-198.5 153.5t-120 237.5t-40 306.5q0 166 40 304t120 238.5t198.5 156t278.5 55.5q158 0 277.5 -55.5t199.5 -156t120 -238.5t40 -304q0 -168 -40 -306.5t-120 -237.5t-199.5 -153.5t-277.5 -54.5zM762 139q111 0 192.5 41t135 117t79 182.5 t25.5 239.5q0 131 -26.5 238.5t-80 182t-134.5 115.5t-191 41q-111 0 -192 -41t-134 -115.5t-79.5 -182t-26.5 -238.5q0 -133 25.5 -239.5t79.5 -182.5t135 -117t192 -41zM383 1587q0 119 57 180.5t158 61.5q51 0 89 -17.5t70 -36.5l64 -37q31 -17 67 -18q53 0 74 29t21 76 h135q0 -123 -57.5 -182.5t-157.5 -59.5q-51 0 -89 17.5t-71 36.5l-64 37q-31 17 -67 18q-53 0 -73.5 -29t-20.5 -76h-135z"/>
<glyph unicode="Ö" horiz-adv-x="1523" d="M762 -33q-160 0 -278.5 54.5t-198.5 153.5t-120 237.5t-40 306.5q0 166 40 304t120 238.5t198.5 156t278.5 55.5q158 0 277.5 -55.5t199.5 -156t120 -238.5t40 -304q0 -168 -40 -306.5t-120 -237.5t-199.5 -153.5t-277.5 -54.5zM762 139q111 0 192.5 41t135 117t79 182.5 t25.5 239.5q0 131 -26.5 238.5t-80 182t-134.5 115.5t-191 41q-111 0 -192 -41t-134 -115.5t-79.5 -182t-26.5 -238.5q0 -133 25.5 -239.5t79.5 -182.5t135 -117t192 -41zM1096 1714q0 -57 -33 -93t-90 -36t-90 37t-33 92t33 92t90 37t90 -36t33 -93zM676 1714 q0 -57 -32.5 -93t-90.5 -36q-57 0 -90 37t-33 92t33 92t90 37t90 -36t33 -93z"/>
<glyph unicode="×" d="M989 999l-282 -301l282 -299l-112 -104l-273 293l-270 -293l-113 104l281 299l-281 301l113 105l270 -295l273 295z"/>
<glyph unicode="Ø" horiz-adv-x="1523" d="M1212 1290q94 -100 140.5 -245.5t46.5 -325.5q0 -168 -40 -306.5t-120 -237.5t-199.5 -153.5t-277.5 -54.5q-102 0 -186 22.5t-154 63.5l-109 -172l-129 74l123 192q-92 100 -137 246t-45 326q0 166 40 304t120 238.5t198.5 156t278.5 55.5q98 0 182 -23t154 -64l112 177 l129 -74zM762 139q111 0 192.5 41t135 117t79 182.5t25.5 239.5q0 250 -92 397l-580 -907q99 -70 240 -70zM330 719q0 -248 88 -397l579 907q-47 33 -105 50t-130 17q-111 0 -192 -41t-134 -115.5t-79.5 -182t-26.5 -238.5z"/>
<glyph unicode="Ù" horiz-adv-x="1374" d="M686 -33q-145 0 -245.5 37t-165 110.5t-93 185.5t-28.5 263v877h188v-854q0 -127 17.5 -213t57.5 -138.5t106.5 -75t162.5 -22.5q98 0 163.5 22.5t106.5 75t58.5 138.5t17.5 213v854h189v-877q0 -152 -29 -263.5t-93.5 -185t-166 -110.5t-246.5 -37zM891 1548l-508 183 l68 165l498 -215z"/>
<glyph unicode="Ú" horiz-adv-x="1374" d="M686 -33q-145 0 -245.5 37t-165 110.5t-93 185.5t-28.5 263v877h188v-854q0 -127 17.5 -213t57.5 -138.5t106.5 -75t162.5 -22.5q98 0 163.5 22.5t106.5 75t58.5 138.5t17.5 213v854h189v-877q0 -152 -29 -263.5t-93.5 -185t-166 -110.5t-246.5 -37zM423 1681l498 215 l68 -165l-508 -183z"/>
<glyph unicode="Û" horiz-adv-x="1374" d="M686 -33q-145 0 -245.5 37t-165 110.5t-93 185.5t-28.5 263v877h188v-854q0 -127 17.5 -213t57.5 -138.5t106.5 -75t162.5 -22.5q98 0 163.5 22.5t106.5 75t58.5 138.5t17.5 213v854h189v-877q0 -152 -29 -263.5t-93.5 -185t-166 -110.5t-246.5 -37zM320 1645l282 225 h170l283 -225l-78 -97l-291 185l-289 -185z"/>
<glyph unicode="Ü" horiz-adv-x="1374" d="M686 -33q-145 0 -245.5 37t-165 110.5t-93 185.5t-28.5 263v877h188v-854q0 -127 17.5 -213t57.5 -138.5t106.5 -75t162.5 -22.5q98 0 163.5 22.5t106.5 75t58.5 138.5t17.5 213v854h189v-877q0 -152 -29 -263.5t-93.5 -185t-166 -110.5t-246.5 -37zM1020 1714 q0 -57 -33 -93t-90 -36t-90 37t-33 92t33 92t90 37t90 -36t33 -93zM600 1714q0 -57 -32.5 -93t-90.5 -36q-57 0 -90 37t-33 92t33 92t90 37t90 -36t33 -93z"/>
<glyph unicode="Ý" horiz-adv-x="1148" d="M479 651l-229 395l-230 394h209l355 -619l350 619h194l-460 -789v-651h-189v651zM331 1681l498 215l68 -165l-508 -183z"/>
<glyph unicode="Þ" horiz-adv-x="1163" d="M1061 733q0 -74 -25.5 -153.5t-85 -146t-155 -108.5t-236.5 -42h-201v-283h-184v1440h184v-256h220q133 0 225 -42t149.5 -108.5t83 -146.5t25.5 -154zM872 733q0 133 -79.5 210t-219.5 77h-215v-574h197q154 0 235.5 77t81.5 210z"/>
<glyph unicode="ß" horiz-adv-x="1265" d="M786 125q104 0 153.5 48t49.5 124q0 39 -11 68.5t-35.5 54t-65.5 47t-99 49.5q-68 31 -111.5 57.5t-68.5 54t-35 59.5t-10 71q0 41 12.5 73.5t32.5 61.5t46 54l50 52q41 41 82 97.5t41 132.5q0 72 -58.5 126t-164.5 54q-268 0 -268 -319v-1090h-183v1094q0 221 107.5 345 t343.5 124q102 0 179 -26t127 -70t74.5 -105.5t24.5 -130.5q0 -47 -13 -88t-34.5 -76t-47 -63.5t-50.5 -53.5l-84 -83q-33 -32 -33 -83q0 -31 16.5 -53t41 -38.5t55.5 -29.5l61 -28q55 -27 103.5 -55.5t84.5 -67.5t55.5 -90t19.5 -121q0 -147 -95.5 -237.5t-283.5 -90.5 q-47 0 -93.5 7.5t-86.5 18.5t-69.5 23.5t-45.5 24.5l59 131q102 -53 227 -53z"/>
<glyph unicode="à" horiz-adv-x="1073" d="M754 477q-2 0 -27 4t-61.5 7.5t-79.5 6.5t-80 3q-66 0 -112 -16.5t-74.5 -44t-42 -64.5t-13.5 -80q0 -88 58.5 -131t152.5 -43q51 0 100.5 16.5t89.5 46t64.5 69.5t24.5 89v137zM766 0l-8 115q-47 -66 -137.5 -104t-186.5 -38q-61 0 -122.5 16.5t-110.5 53.5t-81 98.5 t-32 151.5q0 158 102.5 252t307.5 94q33 0 73.5 -2t77.5 -5t65.5 -6t39.5 -5v63q0 113 -66.5 162t-189.5 49q-111 0 -188 -24.5t-111 -45.5l-56 129q18 12 51 28.5t81.5 32t111 26t139.5 10.5q186 0 295 -91.5t109 -265.5v-694h-164zM733 1163l-457 209l80 162l442 -240z "/>
<glyph unicode="á" horiz-adv-x="1073" d="M754 477q-2 0 -27 4t-61.5 7.5t-79.5 6.5t-80 3q-66 0 -112 -16.5t-74.5 -44t-42 -64.5t-13.5 -80q0 -88 58.5 -131t152.5 -43q51 0 100.5 16.5t89.5 46t64.5 69.5t24.5 89v137zM766 0l-8 115q-47 -66 -137.5 -104t-186.5 -38q-61 0 -122.5 16.5t-110.5 53.5t-81 98.5 t-32 151.5q0 158 102.5 252t307.5 94q33 0 73.5 -2t77.5 -5t65.5 -6t39.5 -5v63q0 113 -66.5 162t-189.5 49q-111 0 -188 -24.5t-111 -45.5l-56 129q18 12 51 28.5t81.5 32t111 26t139.5 10.5q186 0 295 -91.5t109 -265.5v-694h-164zM297 1294l442 240l80 -162l-456 -209z "/>
<glyph unicode="â" horiz-adv-x="1073" d="M754 477q-2 0 -27 4t-61.5 7.5t-79.5 6.5t-80 3q-66 0 -112 -16.5t-74.5 -44t-42 -64.5t-13.5 -80q0 -88 58.5 -131t152.5 -43q51 0 100.5 16.5t89.5 46t64.5 69.5t24.5 89v137zM766 0l-8 115q-47 -66 -137.5 -104t-186.5 -38q-61 0 -122.5 16.5t-110.5 53.5t-81 98.5 t-32 151.5q0 158 102.5 252t307.5 94q33 0 73.5 -2t77.5 -5t65.5 -6t39.5 -5v63q0 113 -66.5 162t-189.5 49q-111 0 -188 -24.5t-111 -45.5l-56 129q18 12 51 28.5t81.5 32t111 26t139.5 10.5q186 0 295 -91.5t109 -265.5v-694h-164zM208 1266l252 231h154l252 -231l-94 -90 l-236 182l-233 -182z"/>
<glyph unicode="ã" horiz-adv-x="1073" d="M754 477q-2 0 -27 4t-61.5 7.5t-79.5 6.5t-80 3q-66 0 -112 -16.5t-74.5 -44t-42 -64.5t-13.5 -80q0 -88 58.5 -131t152.5 -43q51 0 100.5 16.5t89.5 46t64.5 69.5t24.5 89v137zM766 0l-8 115q-47 -66 -137.5 -104t-186.5 -38q-61 0 -122.5 16.5t-110.5 53.5t-81 98.5 t-32 151.5q0 158 102.5 252t307.5 94q33 0 73.5 -2t77.5 -5t65.5 -6t39.5 -5v63q0 113 -66.5 162t-189.5 49q-111 0 -188 -24.5t-111 -45.5l-56 129q18 12 51 28.5t81.5 32t111 26t139.5 10.5q186 0 295 -91.5t109 -265.5v-694h-164zM185 1190q0 119 55 179.5t154 60.5 q49 0 87 -16.5t70.5 -37t64.5 -37t66 -16.5q49 0 69.5 26.5t20.5 73.5h132q0 -119 -55.5 -179t-153.5 -60q-49 0 -87 17.5t-71 36.5l-64 37q-31 17 -65 17q-51 0 -71.5 -27.5t-20.5 -74.5h-131z"/>
<glyph unicode="ä" horiz-adv-x="1073" d="M754 477q-2 0 -27 4t-61.5 7.5t-79.5 6.5t-80 3q-66 0 -112 -16.5t-74.5 -44t-42 -64.5t-13.5 -80q0 -88 58.5 -131t152.5 -43q51 0 100.5 16.5t89.5 46t64.5 69.5t24.5 89v137zM766 0l-8 115q-47 -66 -137.5 -104t-186.5 -38q-61 0 -122.5 16.5t-110.5 53.5t-81 98.5 t-32 151.5q0 158 102.5 252t307.5 94q33 0 73.5 -2t77.5 -5t65.5 -6t39.5 -5v63q0 113 -66.5 162t-189.5 49q-111 0 -188 -24.5t-111 -45.5l-56 129q18 12 51 28.5t81.5 32t111 26t139.5 10.5q186 0 295 -91.5t109 -265.5v-694h-164zM851 1331q0 -53 -31.5 -88t-84.5 -35 t-85 35t-32 88t32 88t85 35t84.5 -35t31.5 -88zM456 1331q0 -53 -31.5 -88t-85.5 -35q-53 0 -84.5 35t-31.5 88t31.5 88t84.5 35t85 -35t32 -88z"/>
<glyph unicode="å" horiz-adv-x="1073" d="M754 477q-2 0 -27 4t-61.5 7.5t-79.5 6.5t-80 3q-66 0 -112 -16.5t-74.5 -44t-42 -64.5t-13.5 -80q0 -88 58.5 -131t152.5 -43q51 0 100.5 16.5t89.5 46t64.5 69.5t24.5 89v137zM766 0l-8 115q-47 -66 -137.5 -104t-186.5 -38q-61 0 -122.5 16.5t-110.5 53.5t-81 98.5 t-32 151.5q0 158 102.5 252t307.5 94q33 0 73.5 -2t77.5 -5t65.5 -6t39.5 -5v63q0 113 -66.5 162t-189.5 49q-111 0 -188 -24.5t-111 -45.5l-56 129q18 12 51 28.5t81.5 32t111 26t139.5 10.5q186 0 295 -91.5t109 -265.5v-694h-164zM763 1386q0 -47 -17 -88t-48 -69.5 t-72 -45t-86 -16.5q-47 0 -88 16.5t-71.5 45t-49 68.5t-18.5 87t17.5 87t48 70t71.5 46.5t88 16.5t88 -16.5t72 -45.5t48 -69t17 -87zM647 1384q0 47 -32 78t-77 31t-75.5 -30.5t-30.5 -78.5q0 -47 30.5 -78.5t75.5 -31.5t77 31.5t32 78.5z"/>
<glyph unicode="æ" horiz-adv-x="1761" d="M840 164q-16 -23 -45 -55.5t-74 -62.5t-110.5 -51.5t-155.5 -21.5q-68 0 -134.5 16.5t-117.5 53.5t-83 98.5t-32 151.5q0 158 102.5 252t307.5 94q33 0 72.5 -2t76.5 -5t65.5 -6t41.5 -5v63q0 113 -66.5 162t-189.5 49q-111 0 -188 -24.5t-111 -45.5l-56 129 q18 12 51 28.5t80.5 32t107.5 26t132 10.5q127 0 223.5 -42t139.5 -135q53 78 138 127.5t199 49.5q104 0 186.5 -32t139.5 -99.5t88 -173t31 -252.5v-29h-729q10 -150 91 -240t253 -90q106 0 175 18.5t97 28.5l49 -135q-10 -6 -38.5 -18.5t-71.5 -24.5t-99.5 -21.5 t-125.5 -9.5q-90 0 -157 16.5t-117 43t-85.5 61.5t-60.5 70zM1470 606q-10 139 -68.5 215t-187.5 76q-131 0 -195.5 -78t-84.5 -213h536zM754 477q-2 0 -27 4t-61.5 7.5t-79.5 6.5t-80 3q-66 0 -112 -16.5t-74.5 -44t-42 -64.5t-13.5 -80q0 -88 58.5 -131t152.5 -43 q121 0 200 61.5t79 159.5v137z"/>
<glyph unicode="ç" horiz-adv-x="1005" d="M483 -14q-184 31 -281.5 167t-97.5 359q0 119 33 218t96.5 170t153.5 110t207 39q78 0 139.5 -16.5t105.5 -36t69.5 -38t29.5 -24.5l-80 -131q-6 6 -27.5 18.5t-55.5 26.5t-79 24.5t-98 10.5q-139 0 -222 -90.5t-83 -280.5q0 -195 83 -284t222 -89q104 0 172 27t90 39 l72 -129q-4 -6 -29.5 -21.5t-68.5 -33t-102.5 -31t-129.5 -15.5l-14 -75q94 -8 144 -57.5t50 -121.5q0 -49 -20.5 -85.5t-56 -62.5t-81.5 -38t-98 -12q-88 0 -141 14t-63 19l32 104q35 -10 71 -17.5t75 -7.5q66 0 99.5 21.5t33.5 58.5q0 29 -27.5 50.5t-91.5 21.5 q-37 0 -74 -6z"/>
<glyph unicode="è" horiz-adv-x="1120" d="M954 47q-10 -6 -38.5 -18.5t-71.5 -24.5t-99.5 -21.5t-126.5 -9.5q-256 0 -385 143.5t-129 397.5q0 119 31 218t90.5 170t146.5 110t201 39q104 0 186.5 -32t139.5 -99.5t88 -173t31 -252.5v-29h-729q10 -150 91 -240t253 -90q106 0 175 18.5t97 28.5zM829 606 q-10 139 -68.5 215t-187.5 76q-131 0 -195.5 -78t-84.5 -213h536zM797 1163l-457 209l80 162l442 -240z"/>
<glyph unicode="é" horiz-adv-x="1120" d="M954 47q-10 -6 -38.5 -18.5t-71.5 -24.5t-99.5 -21.5t-126.5 -9.5q-256 0 -385 143.5t-129 397.5q0 119 31 218t90.5 170t146.5 110t201 39q104 0 186.5 -32t139.5 -99.5t88 -173t31 -252.5v-29h-729q10 -150 91 -240t253 -90q106 0 175 18.5t97 28.5zM829 606 q-10 139 -68.5 215t-187.5 76q-131 0 -195.5 -78t-84.5 -213h536zM330 1294l442 240l80 -162l-456 -209z"/>
<glyph unicode="ê" horiz-adv-x="1120" d="M954 47q-10 -6 -38.5 -18.5t-71.5 -24.5t-99.5 -21.5t-126.5 -9.5q-256 0 -385 143.5t-129 397.5q0 119 31 218t90.5 170t146.5 110t201 39q104 0 186.5 -32t139.5 -99.5t88 -173t31 -252.5v-29h-729q10 -150 91 -240t253 -90q106 0 175 18.5t97 28.5zM829 606 q-10 139 -68.5 215t-187.5 76q-131 0 -195.5 -78t-84.5 -213h536zM241 1266l252 231h154l252 -231l-94 -90l-236 182l-233 -182z"/>
<glyph unicode="ë" horiz-adv-x="1120" d="M954 47q-10 -6 -38.5 -18.5t-71.5 -24.5t-99.5 -21.5t-126.5 -9.5q-256 0 -385 143.5t-129 397.5q0 119 31 218t90.5 170t146.5 110t201 39q104 0 186.5 -32t139.5 -99.5t88 -173t31 -252.5v-29h-729q10 -150 91 -240t253 -90q106 0 175 18.5t97 28.5zM829 606 q-10 139 -68.5 215t-187.5 76q-131 0 -195.5 -78t-84.5 -213h536zM884 1331q0 -53 -31.5 -88t-84.5 -35t-85 35t-32 88t32 88t85 35t84.5 -35t31.5 -88zM489 1331q0 -53 -31.5 -88t-85.5 -35q-53 0 -84.5 35t-31.5 88t31.5 88t84.5 35t85 -35t32 -88z"/>
<glyph unicode="ì" horiz-adv-x="489" d="M154 1024h182v-1024h-182v1024zM418 1163l-457 209l80 162l442 -240z"/>
<glyph unicode="í" horiz-adv-x="489" d="M154 1024h182v-1024h-182v1024zM12 1294l442 240l80 -162l-456 -209z"/>
<glyph unicode="î" horiz-adv-x="489" d="M154 1024h182v-1024h-182v1024zM-82 1266l252 231h154l252 -231l-94 -90l-236 182l-233 -182z"/>
<glyph unicode="ï" horiz-adv-x="489" d="M154 1024h182v-1024h-182v1024zM561 1331q0 -53 -31.5 -88t-84.5 -35t-85 35t-32 88t32 88t85 35t84.5 -35t31.5 -88zM166 1331q0 -53 -31.5 -88t-85.5 -35q-53 0 -84.5 35t-31.5 88t31.5 88t84.5 35t85 -35t32 -88z"/>
<glyph unicode="ð" horiz-adv-x="1189" d="M360 1190l170 139q-55 37 -114.5 62.5t-118.5 40.5l45 131q166 -45 307 -140l172 142l78 -95l-149 -122q160 -141 247.5 -350.5t87.5 -471.5q0 -279 -127 -416t-362 -137q-236 0 -364 134.5t-128 373.5q0 117 33 211t93.5 158.5t147.5 99.5t195 35q96 0 171 -32.5 t100 -65.5q-35 117 -89.5 207t-125.5 157l-191 -155zM596 131q158 0 230.5 93t72.5 257q0 160 -74.5 255t-228.5 95t-228.5 -93t-74.5 -257q0 -166 72.5 -258t230.5 -92z"/>
<glyph unicode="ñ" horiz-adv-x="1155" d="M1012 0h-183v629q0 78 -15 129t-44 80.5t-67.5 41t-84.5 11.5q-80 0 -136 -32t-91 -86t-50 -123.5t-15 -145.5v-504h-183v1024h168l8 -141q12 25 39 54.5t69 55t97.5 42t126.5 16.5q176 0 268.5 -102.5t92.5 -280.5v-668zM226 1190q0 119 55 179.5t154 60.5 q49 0 87 -16.5t70.5 -37t64.5 -37t66 -16.5q49 0 69.5 26.5t20.5 73.5h132q0 -119 -55.5 -179t-153.5 -60q-49 0 -87 17.5t-71 36.5l-64 37q-31 17 -65 17q-51 0 -71.5 -27.5t-20.5 -74.5h-131z"/>
<glyph unicode="ò" horiz-adv-x="1191" d="M596 -27q-117 0 -209 39t-154.5 110t-95.5 170t-33 220q0 119 33 218t96.5 171t154.5 111t208 39t208 -39t154.5 -110t96 -170t32.5 -220q0 -123 -32.5 -222.5t-95 -170t-154.5 -108.5t-209 -38zM596 135q156 0 229.5 104.5t73.5 272.5q0 82 -18.5 150.5t-56.5 118.5 t-95 79t-133 29q-152 0 -227.5 -104.5t-75.5 -272.5q0 -84 18.5 -153.5t55 -119t94 -77t135.5 -27.5zM793 1163l-457 209l80 162l442 -240z"/>
<glyph unicode="ó" horiz-adv-x="1191" d="M596 -27q-117 0 -209 39t-154.5 110t-95.5 170t-33 220q0 119 33 218t96.5 171t154.5 111t208 39t208 -39t154.5 -110t96 -170t32.5 -220q0 -123 -32.5 -222.5t-95 -170t-154.5 -108.5t-209 -38zM596 135q156 0 229.5 104.5t73.5 272.5q0 82 -18.5 150.5t-56.5 118.5 t-95 79t-133 29q-152 0 -227.5 -104.5t-75.5 -272.5q0 -84 18.5 -153.5t55 -119t94 -77t135.5 -27.5zM336 1294l442 240l80 -162l-456 -209z"/>
<glyph unicode="ô" horiz-adv-x="1191" d="M596 -27q-117 0 -209 39t-154.5 110t-95.5 170t-33 220q0 119 33 218t96.5 171t154.5 111t208 39t208 -39t154.5 -110t96 -170t32.5 -220q0 -123 -32.5 -222.5t-95 -170t-154.5 -108.5t-209 -38zM596 135q156 0 229.5 104.5t73.5 272.5q0 82 -18.5 150.5t-56.5 118.5 t-95 79t-133 29q-152 0 -227.5 -104.5t-75.5 -272.5q0 -84 18.5 -153.5t55 -119t94 -77t135.5 -27.5zM268 1266l252 231h154l252 -231l-94 -90l-236 182l-233 -182z"/>
<glyph unicode="õ" horiz-adv-x="1191" d="M596 -27q-117 0 -209 39t-154.5 110t-95.5 170t-33 220q0 119 33 218t96.5 171t154.5 111t208 39t208 -39t154.5 -110t96 -170t32.5 -220q0 -123 -32.5 -222.5t-95 -170t-154.5 -108.5t-209 -38zM596 135q156 0 229.5 104.5t73.5 272.5q0 82 -18.5 150.5t-56.5 118.5 t-95 79t-133 29q-152 0 -227.5 -104.5t-75.5 -272.5q0 -84 18.5 -153.5t55 -119t94 -77t135.5 -27.5zM244 1190q0 119 55 179.5t154 60.5q49 0 87 -16.5t70.5 -37t64.5 -37t66 -16.5q49 0 69.5 26.5t20.5 73.5h132q0 -119 -55.5 -179t-153.5 -60q-49 0 -87 17.5t-71 36.5 l-64 37q-31 17 -65 17q-51 0 -71.5 -27.5t-20.5 -74.5h-131z"/>
<glyph unicode="ö" horiz-adv-x="1191" d="M596 -27q-117 0 -209 39t-154.5 110t-95.5 170t-33 220q0 119 33 218t96.5 171t154.5 111t208 39t208 -39t154.5 -110t96 -170t32.5 -220q0 -123 -32.5 -222.5t-95 -170t-154.5 -108.5t-209 -38zM596 135q156 0 229.5 104.5t73.5 272.5q0 82 -18.5 150.5t-56.5 118.5 t-95 79t-133 29q-152 0 -227.5 -104.5t-75.5 -272.5q0 -84 18.5 -153.5t55 -119t94 -77t135.5 -27.5zM911 1331q0 -53 -31.5 -88t-84.5 -35t-85 35t-32 88t32 88t85 35t84.5 -35t31.5 -88zM516 1331q0 -53 -31.5 -88t-85.5 -35q-53 0 -84.5 35t-31.5 88t31.5 88t84.5 35 t85 -35t32 -88z"/>
<glyph unicode="÷" d="M154 788h905v-163h-905v163zM737 367q0 -59 -35.5 -98.5t-95.5 -39.5q-59 0 -95 39t-36 99q0 59 36 98t95 39t95 -39t36 -98zM737 1047q0 -59 -35.5 -98.5t-95.5 -39.5q-59 0 -95 39t-36 99q0 59 36 98t95 39t95 -39t36 -98z"/>
<glyph unicode="ø" horiz-adv-x="1191" d="M152 -29l94 135q-141 145 -142 406q0 119 33 218t96.5 171t154.5 111t208 39q74 0 137.5 -16.5t116.5 -45.5l90 129l100 -65l-94 -138q68 -72 104.5 -174t36.5 -229q0 -123 -32.5 -222.5t-95 -170t-154.5 -108.5t-209 -38q-76 0 -139.5 16.5t-116.5 45.5l-88 -129z M596 131q78 0 136.5 27.5t96 79t56 121t18.5 153.5q0 147 -63 250l-406 -590q66 -41 162 -41zM289 512q0 -78 14 -141.5t45 -112.5l408 592q-35 20 -74 31.5t-86 11.5q-76 0 -133 -27.5t-96 -79t-58.5 -121t-19.5 -153.5z"/>
<glyph unicode="ù" horiz-adv-x="1155" d="M143 1024h183v-641q0 -74 15 -122t43 -76.5t66.5 -40t86.5 -11.5q80 0 136 32t91 86t50 123.5t15 145.5v504h183v-1024h-168l-8 137q-12 -25 -39 -53.5t-68 -53t-96 -41t-127 -16.5q-176 0 -269.5 102.5t-93.5 280.5v668zM733 1163l-457 209l80 162l442 -240z"/>
<glyph unicode="ú" horiz-adv-x="1155" d="M143 1024h183v-641q0 -74 15 -122t43 -76.5t66.5 -40t86.5 -11.5q80 0 136 32t91 86t50 123.5t15 145.5v504h183v-1024h-168l-8 137q-12 -25 -39 -53.5t-68 -53t-96 -41t-127 -16.5q-176 0 -269.5 102.5t-93.5 280.5v668zM358 1294l442 240l80 -162l-456 -209z"/>
<glyph unicode="û" horiz-adv-x="1155" d="M143 1024h183v-641q0 -74 15 -122t43 -76.5t66.5 -40t86.5 -11.5q80 0 136 32t91 86t50 123.5t15 145.5v504h183v-1024h-168l-8 137q-12 -25 -39 -53.5t-68 -53t-96 -41t-127 -16.5q-176 0 -269.5 102.5t-93.5 280.5v668zM249 1266l252 231h154l252 -231l-94 -90 l-236 182l-233 -182z"/>
<glyph unicode="ü" horiz-adv-x="1155" d="M143 1024h183v-641q0 -74 15 -122t43 -76.5t66.5 -40t86.5 -11.5q80 0 136 32t91 86t50 123.5t15 145.5v504h183v-1024h-168l-8 137q-12 -25 -39 -53.5t-68 -53t-96 -41t-127 -16.5q-176 0 -269.5 102.5t-93.5 280.5v668zM892 1331q0 -53 -31.5 -88t-84.5 -35t-85 35 t-32 88t32 88t85 35t84.5 -35t31.5 -88zM497 1331q0 -53 -31.5 -88t-85.5 -35q-53 0 -84.5 35t-31.5 88t31.5 88t84.5 35t85 -35t32 -88z"/>
<glyph unicode="ý" horiz-adv-x="1026" d="M205 -451l213 508l-398 967h205l291 -748l299 748h191l-623 -1475h-178zM313 1294l442 240l80 -162l-456 -209z"/>
<glyph unicode="þ" horiz-adv-x="1183" d="M143 -451v1987h183v-635q16 25 43.5 51.5t65.5 48t88 36t112 14.5q113 0 196.5 -41t139 -113t82 -167t26.5 -206q0 -152 -41 -254t-107.5 -166.5t-151.5 -92t-171 -27.5q-104 0 -171.5 23.5t-110.5 47.5v-506h-183zM324 233q33 -29 101.5 -60.5t166.5 -31.5 q137 0 218 91.5t81 291.5q0 78 -16.5 144.5t-51.5 114.5t-87 75t-124 27q-141 0 -214.5 -98.5t-73.5 -303.5v-250z"/>
<glyph unicode="ÿ" horiz-adv-x="1026" d="M205 -451l213 508l-398 967h205l291 -748l299 748h191l-623 -1475h-178zM829 1331q0 -53 -31.5 -88t-84.5 -35t-85 35t-32 88t32 88t85 35t84.5 -35t31.5 -88zM434 1331q0 -53 -31.5 -88t-85.5 -35q-53 0 -84.5 35t-31.5 88t31.5 88t84.5 35t85 -35t32 -88z"/>
<glyph unicode="ı" horiz-adv-x="489" d="M154 1024h182v-1024h-182v1024z"/>
<glyph unicode="Œ" horiz-adv-x="1849" d="M762 0q-160 0 -278.5 49t-198.5 142.5t-120 226.5t-40 301q0 166 40 299t120 227t198.5 144.5t278.5 50.5h1005v-170h-639v-436h496v-170h-496v-494h660v-170h-1026zM330 719q0 -266 104.5 -407.5t327.5 -141.5h178v1100h-178q-221 0 -326.5 -142.5t-105.5 -408.5z"/>
<glyph unicode="œ" horiz-adv-x="1904" d="M1073 465q10 -172 100.5 -251t243.5 -79q106 0 175 18.5t98 28.5l49 -135q-10 -6 -39 -18.5t-72 -24.5t-99 -21.5t-126 -9.5q-145 0 -249.5 48.5t-168.5 152.5q-63 -96 -160.5 -148.5t-228.5 -52.5q-117 0 -209 39t-154.5 110t-95.5 170t-33 220q0 119 33 218t96.5 171 t154.5 111t208 39q129 0 233.5 -55.5t155.5 -145.5q57 94 148.5 147.5t224.5 53.5q104 0 186 -32t139.5 -99.5t88 -173t30.5 -252.5v-29h-729zM596 135q156 0 229.5 104.5t73.5 272.5q0 82 -18.5 150.5t-56.5 118.5t-95 79t-133 29q-152 0 -227.5 -104.5t-75.5 -272.5 q0 -84 18.5 -153.5t55 -119t94 -77t135.5 -27.5zM1614 606q-10 139 -68.5 215t-187.5 76q-131 0 -195.5 -78t-85.5 -213h537z"/>
<glyph unicode="Ÿ" horiz-adv-x="1148" d="M479 651l-229 395l-230 394h209l355 -619l350 619h194l-460 -789v-651h-189v651zM907 1714q0 -57 -33 -93t-90 -36t-90 37t-33 92t33 92t90 37t90 -36t33 -93zM487 1714q0 -57 -32.5 -93t-90.5 -36q-57 0 -90 37t-33 92t33 92t90 37t90 -36t33 -93z"/>
<glyph unicode="ˆ" horiz-adv-x="1034" d="M188 1266l252 231h154l252 -231l-94 -90l-236 182l-233 -182z"/>
<glyph unicode="ˉ" horiz-adv-x="1034" d="M221 1229v147h594v-147h-594z"/>
<glyph unicode="˚" horiz-adv-x="1034" d="M743 1386q0 -47 -17 -88t-48 -69.5t-72 -45t-86 -16.5q-47 0 -88 16.5t-71.5 45t-49 68.5t-18.5 87t17.5 87t48 70t71.5 46.5t88 16.5t88 -16.5t72 -45.5t48 -69t17 -87zM627 1384q0 47 -32 78t-77 31t-75.5 -30.5t-30.5 -78.5q0 -47 30.5 -78.5t75.5 -31.5t77 31.5 t32 78.5z"/>
<glyph unicode="˜" horiz-adv-x="1034" d="M158 1190q0 119 55 179.5t154 60.5q49 0 87 -16.5t70.5 -37t64.5 -37t66 -16.5q49 0 69.5 26.5t20.5 73.5h132q0 -119 -55.5 -179t-153.5 -60q-49 0 -87 17.5t-71 36.5l-64 37q-31 17 -65 17q-51 0 -71.5 -27.5t-20.5 -74.5h-131z"/>
<glyph unicode=" " horiz-adv-x="948"/>
<glyph unicode=" " horiz-adv-x="1896"/>
<glyph unicode=" " horiz-adv-x="948"/>
<glyph unicode=" " horiz-adv-x="1896"/>
<glyph unicode=" " horiz-adv-x="630"/>
<glyph unicode=" " horiz-adv-x="473"/>
<glyph unicode=" " horiz-adv-x="315"/>
<glyph unicode=" " horiz-adv-x="315"/>
<glyph unicode=" " horiz-adv-x="235"/>
<glyph unicode=" " horiz-adv-x="378"/>
<glyph unicode=" " horiz-adv-x="104"/>
<glyph unicode="‐" horiz-adv-x="833" d="M123 668h588v-189h-588v189z"/>
<glyph unicode="‑" horiz-adv-x="833" d="M123 668h588v-189h-588v189z"/>
<glyph unicode="‒" horiz-adv-x="833" d="M123 668h588v-189h-588v189z"/>
<glyph unicode="–" horiz-adv-x="1024" d="M0 520v176h1024v-176h-1024z"/>
<glyph unicode="—" horiz-adv-x="2048" d="M0 520v176h2048v-176h-2048z"/>
<glyph unicode="‘" horiz-adv-x="552" d="M154 1137q0 61 28.5 130.5t65.5 131t70.5 106.5l43.5 58l95 -66q-12 -16 -31 -48l-39 -69q-20 -37 -36.5 -73.5t-24.5 -65.5q29 -16 48 -44t19 -69q0 -57 -32.5 -90.5t-88.5 -33.5q-51 0 -84.5 36t-33.5 97z"/>
<glyph unicode="’" horiz-adv-x="552" d="M399 1430q0 -61 -28.5 -131t-65.5 -131.5t-70.5 -106.5t-44.5 -57l-94 65q12 16 31 47l39 68q20 37 36.5 74.5t24.5 66.5q-29 16 -48 44t-19 69q0 57 32.5 91t88.5 34q51 0 84.5 -36t33.5 -97z"/>
<glyph unicode="‚" horiz-adv-x="552" d="M399 109q0 -61 -28.5 -131t-65.5 -131.5t-70.5 -106.5t-44.5 -57l-94 65q12 16 31 47l39 68q20 37 36.5 74.5t24.5 66.5q-29 16 -48 44t-19 69q0 57 32.5 91t88.5 34q51 0 84.5 -36t33.5 -97z"/>
<glyph unicode="“" horiz-adv-x="948" d="M154 1137q0 61 28.5 130.5t65.5 131t70.5 106.5l43.5 58l95 -66q-12 -16 -31 -48l-39 -69q-20 -37 -36.5 -73.5t-24.5 -65.5q29 -16 48 -44t19 -69q0 -57 -32.5 -90.5t-88.5 -33.5q-51 0 -84.5 36t-33.5 97zM549 1137q0 61 28.5 130.5t65.5 131t70.5 106.5l43.5 58 l95 -66q-12 -16 -31 -48l-39 -69q-20 -37 -36.5 -73.5t-24.5 -65.5q29 -16 48 -44t19 -69q0 -57 -32.5 -90.5t-88.5 -33.5q-51 0 -84.5 36t-33.5 97z"/>
<glyph unicode="”" horiz-adv-x="948" d="M399 1430q0 -61 -28.5 -131t-65.5 -131.5t-70.5 -106.5t-44.5 -57l-94 65q12 16 31 47l39 68q20 37 36.5 74.5t24.5 66.5q-29 16 -48 44t-19 69q0 57 32.5 91t88.5 34q51 0 84.5 -36t33.5 -97zM794 1430q0 -61 -28.5 -131t-65.5 -131.5t-70.5 -106.5t-44.5 -57l-94 65 q12 16 31 47l39 68q20 37 36.5 74.5t24.5 66.5q-29 16 -48 44t-19 69q0 57 32.5 91t88.5 34q51 0 84.5 -36t33.5 -97z"/>
<glyph unicode="„" horiz-adv-x="948" d="M399 109q0 -61 -28.5 -131t-65.5 -131.5t-70.5 -106.5t-44.5 -57l-94 65q12 16 31 47l39 68q20 37 36.5 74.5t24.5 66.5q-29 16 -48 44t-19 69q0 57 32.5 91t88.5 34q51 0 84.5 -36t33.5 -97zM794 109q0 -61 -28.5 -131t-65.5 -131.5t-70.5 -106.5t-44.5 -57l-94 65 q12 16 31 47l39 68q20 37 36.5 74.5t24.5 66.5q-29 16 -48 44t-19 69q0 57 32.5 91t88.5 34q51 0 84.5 -36t33.5 -97z"/>
<glyph unicode="•" horiz-adv-x="1026" d="M156 694q0 74 27.5 139.5t75.5 113.5t113.5 76t139.5 28t139.5 -28t114.5 -76t76.5 -113.5t27.5 -139.5q0 -76 -27.5 -141.5t-76.5 -113.5t-114.5 -75.5t-139.5 -27.5t-139.5 27.5t-113.5 75.5t-75.5 113.5t-27.5 141.5z"/>
<glyph unicode="…" horiz-adv-x="2048" d="M474 111q0 -59 -36 -98.5t-96 -39.5q-59 0 -95 39t-36 99q0 59 36 98t95 39t95.5 -39t36.5 -98zM1156 111q0 -59 -36 -98.5t-96 -39.5q-59 0 -95 39t-36 99q0 59 36 98t95 39t95.5 -39t36.5 -98zM1838 111q0 -59 -36 -98.5t-96 -39.5q-59 0 -95 39t-36 99q0 59 36 98 t95 39t95.5 -39t36.5 -98z"/>
<glyph unicode=" " horiz-adv-x="378"/>
<glyph unicode="‹" horiz-adv-x="614" d="M338 117l-236 395l236 395h174l-227 -395l227 -395h-174z"/>
<glyph unicode="›" horiz-adv-x="614" d="M102 117l228 395l-228 395h174l236 -395l-236 -395h-174z"/>
<glyph unicode="⁄" horiz-adv-x="180" d="M383 1413h182l-768 -1413h-182z"/>
<glyph unicode=" " horiz-adv-x="473"/>
<glyph unicode="⁴" horiz-adv-x="868" d="M635 1102v-158h106v-129h-106v-176h-139v176h-367v111l330 499h159l-321 -481h199v158h139z"/>
<glyph unicode="€" d="M782 1300q-154 0 -238.5 -89t-117.5 -248h549l-41 -140h-526q-2 -27 -2 -52v-52v-84h487l-41 -139h-432q29 -168 112.5 -262.5t253.5 -94.5q61 0 110.5 11.5t86.5 28t62.5 33.5t44.5 32l100 -129q-57 -57 -160.5 -102.5t-249.5 -45.5q-127 0 -224 36t-165.5 104.5 t-110.5 167t-61 221.5h-149v139h137q-2 20 -2 41v43q0 27 1 52.5t3 51.5h-139v140h153q20 113 62.5 206t111 160.5t163.5 105.5t222 38q145 0 244.5 -46.5t165.5 -107.5l-100 -127q-14 12 -40 31.5t-63 36t-88 28.5t-119 12z"/>
<glyph unicode="™" horiz-adv-x="1839" d="M496 1305v-650h-156v650h-279v135h711v-135h-276zM1049 1212v-557h-134v785h150l248 -414l235 414h150v-785h-133v566l-207 -359h-103z"/>
<glyph unicode="" horiz-adv-x="1025" d="M0 1025h1025v-1025h-1025v1025z"/>
<glyph unicode="" horiz-adv-x="1220" d="M438 1024h629v-1024h-182v870h-447v-870h-182v870h-195v154h195v106q0 92 19.5 171t63.5 137.5t115.5 91.5t176.5 33q53 0 91 -6.5t48 -8.5l-12 -143q-8 2 -29.5 4t-64.5 2q-117 0 -171.5 -67.5t-54.5 -227.5v-92zM1094 1356q0 -55 -32 -90t-87 -35t-87 36t-32 89t32 89 t87 36t87 -35t32 -90z"/>
<glyph unicode="" horiz-adv-x="1241" d="M905 1536h182v-1536h-182v1536zM756 870h-318v-870h-182v870h-195v154h195v106q0 92 19.5 171t63.5 137.5t115.5 91.5t176.5 33q53 0 91 -6.5t48 -8.5l-12 -143q-8 2 -29.5 4t-64.5 2q-117 0 -171.5 -67.5t-54.5 -227.5v-92h318v-154z"/>
<glyph unicode="" d="M100 707q0 356 123 544.5t383 188.5q258 0 382 -188.5t124 -544.5q0 -360 -123 -547t-383 -187t-383 188t-123 546zM293 707q0 -287 75.5 -429.5t237.5 -142.5q160 0 237 143.5t77 428.5q0 287 -77 428t-237 141t-236.5 -141t-76.5 -428z"/>
<glyph unicode="" horiz-adv-x="964" d="M461 1194l-332 -193l-72 140l457 272h133v-1413h-186v1194z"/>
<glyph unicode="" horiz-adv-x="1087" d="M475 694q63 49 113.5 93t84.5 87.5t51 88.5t17 98q0 92 -57 155.5t-182 63.5q-61 0 -110.5 -17.5t-87.5 -42t-65.5 -53t-45.5 -53.5l-117 100q20 31 57 70t92.5 74t127 58.5t161.5 23.5q111 0 190.5 -32t131 -84t75 -119.5t23.5 -137.5q0 -78 -25.5 -143.5t-69.5 -123 t-100.5 -108.5t-117.5 -98q-78 -59 -137.5 -113.5t-101.5 -106.5t-66.5 -104.5t-30.5 -109.5h667v-160h-860v33q0 111 23.5 200t72 166.5t120 149t167.5 145.5z"/>
<glyph unicode="" horiz-adv-x="1087" d="M287 803h137q78 0 134 19.5t92 53t53.5 79.5t17.5 98q0 96 -57.5 162.5t-186.5 66.5q-59 0 -107 -12.5t-86 -30.5t-66 -39.5t-46 -38.5l-100 107q18 23 54 52.5t88 56t118.5 45t148.5 18.5q113 0 193 -30t132 -80t76.5 -114.5t24.5 -134.5q0 -68 -19.5 -122t-53 -97 t-78.5 -75.5t-97 -53.5q57 -14 107.5 -42.5t87.5 -72t58.5 -99.5t21.5 -124q0 -102 -39 -181t-107.5 -132t-162 -81t-201.5 -28q-129 0 -219 17.5t-142 36.5l41 147q37 -10 110 -24.5t196 -14.5q150 0 241.5 64.5t91.5 195.5q0 106 -74.5 177t-238.5 71h-143v160z"/>
<glyph unicode="" horiz-adv-x="1148" d="M838 874v-364h211v-156h-211v-354h-172v354h-584v148l530 911h189l-529 -903h394v364h172z"/>
<glyph unicode="" horiz-adv-x="1067" d="M395 137q156 0 252 80t96 234q0 51 -13 102t-46 93t-88 67.5t-139 25.5q-86 0 -141.5 -22.5t-90.5 -42.5l-100 71l80 668h678v-162h-545l-45 -401q16 10 71.5 24.5t141.5 14.5q92 0 171 -26.5t135 -80t89 -136.5t33 -195q0 -98 -35 -185.5t-101.5 -152t-164.5 -102.5 t-227 -38t-219.5 17.5t-141.5 36.5l41 147q37 -10 109.5 -23.5t199.5 -13.5z"/>
<glyph unicode="" horiz-adv-x="1148" d="M686 1280q-174 0 -264 -134t-107 -386q41 66 127 115t199 49q86 0 162 -27t132 -82t90 -141t34 -207q0 -119 -33 -211t-92.5 -154.5t-143 -95.5t-188.5 -33q-217 0 -341 158t-124 479q0 410 140.5 620t408.5 210q109 0 185.5 -23.5t138.5 -64.5l-72 -131q-115 59 -252 59 zM600 129q74 0 126 24.5t86 67.5t50.5 100.5t16.5 122.5q0 166 -69 243t-198 77q-135 0 -211.5 -83t-76.5 -212q0 -63 16 -124.5t50 -109t86 -77t124 -29.5z"/>
<glyph unicode="" horiz-adv-x="1087" d="M217 0l578 1251h-727v162h913v-149l-571 -1264h-193z"/>
<glyph unicode="" horiz-adv-x="1210" d="M1036 1083q0 -61 -19.5 -113t-52 -95.5t-76.5 -77t-91 -60.5q66 -33 117 -68.5t86.5 -79.5t54 -100.5t18.5 -128.5q0 -182 -125 -284.5t-344 -102.5q-111 0 -198 27t-147 75t-91 113.5t-31 145.5q0 76 22.5 135t61.5 105.5t92.5 82t114.5 66.5q-47 25 -92 55.5t-81 72.5 t-58.5 98.5t-22.5 129.5q0 74 28.5 139.5t83 114.5t134.5 78t184 29q113 0 194 -28t134 -77t78.5 -113.5t25.5 -138.5zM895 358q0 59 -20.5 105.5t-59.5 82.5t-96 64.5t-133 53.5q-57 -27 -107.5 -56.5t-87.5 -66.5t-57.5 -83t-20.5 -108q0 -100 75 -163.5t216 -63.5 q135 0 213 60t78 175zM862 1077q0 94 -64.5 156.5t-193.5 62.5q-123 0 -190.5 -62.5t-67.5 -154.5q0 -59 22.5 -103t61.5 -78t92 -58.5t113 -42.5q106 47 166.5 112.5t60.5 167.5z"/>
<glyph unicode="" horiz-adv-x="1148" d="M432 131q102 0 174 35t119 101.5t72.5 163.5t36.5 222q-41 -66 -127 -115t-199 -49q-86 0 -162 27t-132 82t-90 141t-34 207q0 119 33 210t92 154.5t143 96.5t189 33q217 0 341 -159t124 -488q0 -207 -40 -362t-114 -256t-180.5 -151.5t-239.5 -50.5q-117 0 -186.5 16.5 t-87.5 24.5l37 148q10 -4 33.5 -9.5t55.5 -9.5t68.5 -8t73.5 -4zM549 1284q-74 0 -127 -24.5t-87 -67.5t-49.5 -100.5t-15.5 -122.5q0 -166 69 -243t198 -77q135 0 211.5 83t76.5 212q0 63 -16 124.5t-50 109t-86 77t-124 29.5z"/>
<glyph unicode="ﬁ" horiz-adv-x="1220" d="M438 1024h629v-1024h-182v870h-447v-870h-182v870h-195v154h195v106q0 92 19.5 171t63.5 137.5t115.5 91.5t176.5 33q53 0 91 -6.5t48 -8.5l-12 -143q-8 2 -29.5 4t-64.5 2q-117 0 -171.5 -67.5t-54.5 -227.5v-92zM1094 1356q0 -55 -32 -90t-87 -35t-87 36t-32 89t32 89 t87 36t87 -35t32 -90z"/>
<glyph unicode="ﬂ" horiz-adv-x="1241" d="M905 1536h182v-1536h-182v1536zM756 870h-318v-870h-182v870h-195v154h195v106q0 92 19.5 171t63.5 137.5t115.5 91.5t176.5 33q53 0 91 -6.5t48 -8.5l-12 -143q-8 2 -29.5 4t-64.5 2q-117 0 -171.5 -67.5t-54.5 -227.5v-92h318v-154z"/>
<glyph unicode="ﬃ" horiz-adv-x="1849" d="M61 870v154h195v117q0 92 22.5 170t69.5 133t123 87t180 32q70 0 121 -9.5t66 -13.5l-21 -139q-10 2 -50 6t-83 4q-117 0 -181.5 -62.5t-64.5 -222.5v-102h447v106q0 92 19.5 171t63.5 137.5t115.5 91.5t176.5 33q53 0 91 -6.5t48 -8.5l-13 -143q-8 2 -29.5 4t-64.5 2 q-117 0 -171 -67.5t-54 -227.5v-92h629v-1024h-183v870h-446v-870h-182v870h-447v-870h-182v870h-195zM1722 1356q0 -55 -31.5 -90t-86.5 -35t-87 36t-32 89t31.5 89t87.5 36q55 0 86.5 -35t31.5 -90z"/>
<glyph unicode="ﬄ" horiz-adv-x="1869" d="M1067 1024h317v-154h-317v-870h-182v870h-447v-870h-182v870h-195v154h195v117q0 92 22.5 170t69.5 133t123 87t180 32q70 0 121 -9.5t66 -13.5l-21 -139q-10 2 -50 6t-83 4q-117 0 -181.5 -62.5t-64.5 -222.5v-102h447v106q0 92 19.5 171t63.5 137.5t115.5 91.5 t176.5 33q53 0 91 -6.5t48 -8.5l-13 -143q-8 2 -29.5 4t-64.5 2q-117 0 -171 -67.5t-54 -227.5v-92zM1534 1536h182v-1536h-182v1536z"/>
<glyph horiz-adv-x="1034" d="M850 1714q0 -57 -33 -93t-90 -36t-90 37t-33 92t33 92t90 37t90 -36t33 -93zM430 1714q0 -57 -32.5 -93t-90.5 -36q-57 0 -90 37t-33 92t33 92t90 37t90 -36t33 -93z"/>
<glyph horiz-adv-x="1034" d="M233 1681l498 215l68 -165l-508 -183z"/>
<glyph horiz-adv-x="1034" d="M741 1548l-508 183l68 165l498 -215z"/>
<glyph horiz-adv-x="1034" d="M150 1645l282 225h170l283 -225l-78 -97l-291 185l-289 -185z"/>
<glyph horiz-adv-x="1034" d="M150 1587q0 119 57 180.5t158 61.5q51 0 89 -17.5t70 -36.5l64 -37q31 -17 67 -18q53 0 74 29t21 76h135q0 -123 -57.5 -182.5t-157.5 -59.5q-51 0 -89 17.5t-71 36.5l-64 37q-31 17 -67 18q-53 0 -73.5 -29t-20.5 -76h-135z"/>
</font>
</defs>
</svg>
